<?xml version="1.0" encoding="utf-8"?>
<!-- Generator: Adobe Illustrator 16.0.0, SVG Export Plug-In . SVG Version: 6.00 Build 0)  -->
<!DOCTYPE svg PUBLIC "-//W3C//DTD SVG 1.1//EN" "http://www.w3.org/Graphics/SVG/1.1/DTD/svg11.dtd">
<svg version="1.1" id="Layer_1" xmlns="http://www.w3.org/2000/svg" xmlns:xlink="http://www.w3.org/1999/xlink" x="0px" y="0px"
	 width="412.426px" height="383.172px" viewBox="0 0 412.426 383.172" enable-background="new 0 0 412.426 383.172"
	 xml:space="preserve">
<g>
	<path fill="#2980B9" d="M286.777,170.613h-29.584v16.463h-80.281l-5.459,11.137l-19.634-34.761
		c12.949-9.596,22.058-23.28,25.882-39.137c4.32-17.907,1.407-36.426-8.2-52.148L135.68,16.83l8.385-5.128
		c2.98-1.817,3.916-5.704,2.1-8.678c-1.817-2.974-5.704-3.917-8.686-2.093L3.023,83.109c-2.975,1.824-3.917,5.716-2.093,8.684
		c1.817,2.968,5.704,3.917,8.678,2.099l8.386-5.128l33.818,55.331c12.631,20.673,34.657,33.017,58.904,33.017
		c10.551,0,20.876-2.57,30.325-7.221l23.715,41.982l-4.547,9.278h-50.688l-14.062,30.05H60.478v-17.938
		c0-3.464-2.804-6.272-6.268-6.272c-3.47,0-6.279,2.809-6.279,6.272v51.278c0,3.465,2.811,6.272,6.279,6.272
		c3.464,0,6.268-2.81,6.268-6.272v-20.789h29.106L75.11,294.676h23.194l-25.11,64.248c-3.604,9.234,0.575,19.527,9.31,22.938
		c2.252,0.881,4.356,1.311,6.438,1.311c9.063,0,13.936-8.293,15.35-10.723l52.308-77.773h19.364v51.029
		c0,3.471,2.803,6.278,6.285,6.278c3.457,0,6.267-2.81,6.267-6.278v-51.029h68.666v13.551h29.584
		c10.135,0,18.372-8.244,18.372-18.379V188.992C305.149,178.857,296.912,170.613,286.777,170.613z M61.824,137.987L28.005,82.656
		l97.663-59.694l33.825,55.343c7.975,13.042,10.393,28.409,6.806,43.262c-3.586,14.866-12.748,27.43-25.789,35.398
		c-8.997,5.508-19.297,8.415-29.786,8.415C90.589,165.387,72.314,155.142,61.824,137.987z M94.377,366.208
		c-2.044,3.465-3.868,5.233-5.423,5.233c-0.587,0-1.315-0.172-2.166-0.509c-2.705-1.053-3.894-4.521-2.645-7.729l26.774-68.521
		h31.549L94.377,366.208z M256.379,282.952H93.575l23.427-50.043h50.533l16.694-34.088h72.154v84.133h-0.005V282.952z
		 M293.411,289.861c0,3.666-2.976,6.642-6.635,6.642H268.93V182.351h17.847c3.659,0,6.635,2.98,6.635,6.641V289.861L293.411,289.861
		z"/>
	<path fill="#2980B9" d="M406.153,234.211h-70.68c-3.476,0-6.285,2.81-6.285,6.285c0,3.459,2.811,6.268,6.285,6.268h70.68
		c3.465,0,6.273-2.809,6.273-6.268C412.426,237.021,409.616,234.211,406.153,234.211z"/>
	<path fill="#2980B9" d="M334.569,220.234l66.48-23.972c3.262-1.182,4.963-4.78,3.774-8.036c-1.168-3.268-4.766-4.963-8.035-3.782
		l-66.493,23.979c-3.263,1.175-4.949,4.773-3.775,8.041C327.706,219.726,331.293,221.409,334.569,220.234z"/>
	<path fill="#2980B9" d="M401.049,284.727l-66.48-23.979c-3.274-1.181-6.861,0.508-8.043,3.765
		c-1.168,3.269,0.514,6.866,3.777,8.042l66.492,23.979c3.264,1.176,6.86-0.521,8.036-3.781
		C406.006,289.495,404.311,285.901,401.049,284.727z"/>
</g>
</svg>
