<?xml version="1.0" encoding="utf-8"?>
<!-- Generator: Adobe Illustrator 16.0.0, SVG Export Plug-In . SVG Version: 6.00 Build 0)  -->
<!DOCTYPE svg PUBLIC "-//W3C//DTD SVG 1.1//EN" "http://www.w3.org/Graphics/SVG/1.1/DTD/svg11.dtd">
<svg version="1.1" id="Layer_1" xmlns="http://www.w3.org/2000/svg" xmlns:xlink="http://www.w3.org/1999/xlink" x="0px" y="0px"
	 width="464.508px" height="529.992px" viewBox="0 0 464.508 529.992" enable-background="new 0 0 464.508 529.992"
	 xml:space="preserve">
<g>
	<path fill="#2980B9" d="M291.313,321.912c0.611,0,1.225,0,1.225,0l146.268-17.137c14.688-1.836,25.704-14.075,25.704-28.764V180.54
		V42.84c0-23.868-18.973-42.84-42.84-42.84H42.84C18.973,0,0,18.972,0,42.84v137.7v95.472c0,14.688,11.017,26.928,25.704,28.764
		l146.269,17.137c9.792,1.836,15.911,10.404,14.688,20.195c0,0.613,0,1.225-0.612,1.836
		c-4.896,29.377-16.523,106.487-16.523,123.013c0,34.884,28.152,63.036,63.036,63.036s63.035-28.152,63.035-63.036
		c0-17.136-12.239-97.308-16.523-123.624C276.624,334.152,282.132,324.359,291.313,321.912z M12.24,42.84
		c0-17.136,13.464-30.6,30.6-30.6h91.801v53.856c0,3.672,2.447,6.12,6.12,6.12c3.672,0,6.119-2.448,6.119-6.12V12.24h79.561v84.456
		c0,3.672,2.447,6.12,6.12,6.12c3.672,0,6.119-2.448,6.119-6.12V12.24h79.561v53.856c0,3.672,2.448,6.12,6.12,6.12
		s6.12-2.448,6.12-6.12V12.24h91.8c17.136,0,30.601,13.464,30.601,30.6v131.58H12.24V42.84z M266.832,345.779
		c5.508,34.271,16.523,106.487,16.523,121.177c0,28.152-22.645,50.796-50.796,50.796s-50.796-22.644-50.796-50.796
		c0-14.688,10.403-86.292,16.523-120.563c0-0.611,0.611-1.836,0.611-2.449c2.448-16.522-8.567-31.822-25.092-34.271L27.54,292.536
		c-8.567-1.224-14.688-7.956-14.688-16.524V186.66H452.88v89.352c0,8.568-6.12,15.912-14.688,16.524l-146.88,17.136
		c-0.611,0-1.837,0.612-2.448,0.612C272.34,314.568,263.16,330.48,266.832,345.779z"/>
</g>
</svg>
