<svg viewBox="0 0 90 69" xmlns="http://www.w3.org/2000/svg" fill-rule="evenodd" clip-rule="evenodd" stroke-linejoin="round" stroke-miterlimit="1.414"><path d="M79 0H11C4.966 0 0 4.966 0 11v47c0 6.034 4.966 11 11 11h68c6.034 0 11-4.966 11-11V11c0-6.034-4.966-11-11-11zM44.78 13.84h.01c5.53 0 10.08 4.55 10.08 10.08S50.32 34 44.79 34s-10.08-4.55-10.08-10.08c.005-5.524 4.546-10.069 10.07-10.08zM84 58c0 2.743-2.257 5-5 5H11c-2.743 0-5-2.257-5-5v-5.71L26.87 32.6l24.42 22.35a3.01 3.01 0 0 0 2.025.784 3.024 3.024 0 0 0 3.009-3.009 3.01 3.01 0 0 0-.984-2.225l-3.14-2.86 13-10.2L84 54.81V58z" fill="#2980b9" fill-rule="nonzero"/></svg>