<?xml version="1.0" encoding="utf-8"?>
<!-- Generator: Adobe Illustrator 16.0.0, SVG Export Plug-In . SVG Version: 6.00 Build 0)  -->
<!DOCTYPE svg PUBLIC "-//W3C//DTD SVG 1.1//EN" "http://www.w3.org/Graphics/SVG/1.1/DTD/svg11.dtd">
<svg version="1.1" id="Layer_1" xmlns="http://www.w3.org/2000/svg" xmlns:xlink="http://www.w3.org/1999/xlink" x="0px" y="0px"
	 width="497.709px" height="550.801px" viewBox="0 0 497.709 550.801" enable-background="new 0 0 497.709 550.801"
	 xml:space="preserve">
<path fill="#2980B9" d="M12.057,36.181v86.996c0,6.634,2.717,12.668,7.087,17.032c4.363,4.376,10.397,7.087,17.031,7.087h363.229
	c6.641,0,12.668-2.711,17.031-7.087c4.364-4.363,7.081-10.398,7.081-17.032V96.286V63.079V36.181c0-6.646-2.711-12.693-7.074-17.056
	l-0.007,0.012c-4.363-4.357-10.397-7.075-17.031-7.075H36.169c-6.634,0-12.675,2.699-17.032,7.05l-0.03,0.024
	C14.762,23.5,12.057,29.535,12.057,36.181L12.057,36.181z M239.341,320.346c6.175,1.676,11.714,4.956,16.12,9.363
	c6.542,6.542,10.6,15.6,10.6,25.557v159.365c0,9.951-4.063,18.99-10.6,25.533l-0.024,0.029
	c-6.555,6.543-15.594,10.606-25.545,10.606h-24.241c-9.957,0-19.009-4.063-25.551-10.606c-6.555-6.556-10.618-15.605-10.618-25.563
	V355.266c0-9.938,4.063-18.972,10.618-25.533l0.012-0.012l0.007-0.012l0.056-0.063c4.406-4.362,9.902-7.625,16.04-9.301v-80.332
	v-15.533c0-3.323,2.712-6.034,6.028-6.034h15.531h236.795V102.308H435.56v20.869c0,9.957-4.063,19.009-10.618,25.563
	c-6.554,6.542-15.594,10.612-25.551,10.612H36.169c-9.97,0-19.009-4.07-25.551-10.612C4.064,142.186,0,133.134,0,123.177V36.181
	c0-9.951,4.063-18.99,10.604-25.545l0.031-0.024C17.192,4.063,26.218,0,36.169,0h363.228c9.97,0,19.009,4.063,25.552,10.612
	l-0.013,0.012l0.013,0.012c6.556,6.555,10.618,15.594,10.618,25.545v20.863h56.12c3.323,0,6.022,2.699,6.022,6.034v15.508v17.699
	v143.729v15.532c0,3.33-2.699,6.022-6.022,6.022h-15.532H239.341V320.346L239.341,320.346z M205.651,331.146
	c-6.646,0-12.681,2.711-17.031,7.063l-0.02,0.024c-4.363,4.356-7.063,10.386-7.063,17.031v159.365
	c0,6.635,2.712,12.668,7.081,17.045c4.362,4.363,10.397,7.063,17.031,7.063h24.241c6.646,0,12.668-2.688,17.044-7.045l0.02-0.019
	c4.356-4.377,7.056-10.41,7.056-17.045V355.266c0-6.627-2.711-12.668-7.074-17.031c-4.376-4.363-10.41-7.088-17.044-7.088H205.651
	L205.651,331.146z M208.27,319.098v-79.083v-9.511h9.511H460.61c3.335,0,6.028-2.699,6.028-6.022V96.286
	c0-3.323-2.699-6.028-6.028-6.028h-25.043V69.113h50.086v9.48v17.699V240.02v9.499h-9.498H233.307c-3.323,0-6.028,2.699-6.028,6.028
	v63.551H208.27z"/>
</svg>
