<?xml version="1.0" encoding="utf-8"?>
<!-- Generator: Adobe Illustrator 16.0.0, SVG Export Plug-In . SVG Version: 6.00 Build 0)  -->
<!DOCTYPE svg PUBLIC "-//W3C//DTD SVG 1.1//EN" "http://www.w3.org/Graphics/SVG/1.1/DTD/svg11.dtd">
<svg version="1.1" id="Layer_1" xmlns="http://www.w3.org/2000/svg" xmlns:xlink="http://www.w3.org/1999/xlink" x="0px" y="0px"
	 width="455.109px" height="351.471px" viewBox="0 0 455.109 351.471" enable-background="new 0 0 455.109 351.471"
	 xml:space="preserve">
<g>
	<g>
		<path fill="#2980B9" d="M430.521,238.704c0.053,0.063,0.107,0.124,0.163,0.183c-9.742-10.438-23.277-17.737-36.669-18.396
			c-0.453-0.022-0.817-0.035-1.088-0.037h-0.016v0.021c-0.141-0.001-0.278-0.009-0.417-0.021
			c-9.807,0.082-20.36,5.362-28.688,13.064c-8.419,7.788-14.412,17.903-14.882,27.458c-0.021,0.43-0.033,0.768-0.034,1.007l0,0h0.02
			c-0.001,0.141-0.008,0.281-0.02,0.418c0.021,2.492,0.372,4.972,1.016,7.396c2.048,7.723,7.062,14.75,13.736,19.891
			c6.697,5.156,15.012,8.37,23.631,8.436c3.036,0.022,6.132-0.35,9.23-1.172c1.699-0.45,3.354-1.008,4.942-1.662
			c7.216-2.967,13.55-7.989,17.54-14.205c3.815-5.941,5.438-13.011,3.484-20.378c-0.307-1.156-0.69-2.304-1.156-3.437
			c-3.082-7.492-9.612-12.24-17.06-14.397c-4.946-1.433-10.274-1.733-15.298-0.954c-4.905,0.763-9.468,2.549-13.01,5.313
			c-4.221,3.292-7.008,8.068-7.1,14.242c-0.055,3.668,0.532,6.529,1.863,8.905c1.363,2.433,3.614,4.569,6.849,6.724
			c2.211,1.473,4.972,3.007,7.992,3.658l0.001-0.006c0.086,0.02,0.17,0.039,0.253,0.063c2.675,0.523,5.659,0.336,8.795-1.288
			c2.7-1.397,5.025-3.313,6.813-5.475c1.713-2.07,2.886-4.323,3.358-6.5c0.403-1.848,0.288-3.612-0.468-5.072
			c-0.386-0.744-0.969-1.46-1.771-2.122c-1.323-1.094-2.861-1.543-4.381-1.517c-1.894,0.035-3.796,0.774-5.323,1.941
			c-2.288,1.748-5.563,1.309-7.313-0.98c-1.749-2.29-1.31-5.564,0.979-7.313c3.193-2.439,7.293-3.987,11.491-4.065
			c3.879-0.071,7.812,1.082,11.204,3.887c1.902,1.57,3.353,3.394,4.385,5.39c1.938,3.744,2.312,7.918,1.407,12.061
			c-0.832,3.813-2.759,7.607-5.523,10.953c-2.634,3.188-6.073,6.014-10.08,8.088c-5.6,2.898-10.927,3.205-15.696,2.237
			c-0.112-0.017-0.226-0.037-0.339-0.062l0.001-0.005c-4.575-0.987-8.486-3.132-11.548-5.171
			c-4.636-3.087-7.976-6.351-10.198-10.317c-2.256-4.024-3.255-8.563-3.171-14.136c0.145-9.694,4.501-17.184,11.103-22.33
			c4.979-3.884,11.226-6.369,17.831-7.396c6.49-1.008,13.385-0.615,19.791,1.24c10.292,2.98,19.386,9.708,23.802,20.444
			c0.66,1.606,1.193,3.189,1.605,4.742c2.771,10.451,0.528,20.386-4.792,28.673c-5.144,8.013-13.217,14.447-22.361,18.209
			c-2.057,0.846-4.146,1.555-6.251,2.111c-3.965,1.053-7.967,1.527-11.927,1.498c-11.013-0.084-21.548-4.12-29.963-10.601
			c-8.438-6.497-14.806-15.498-17.455-25.486c-0.861-3.25-1.328-6.621-1.343-10.063c-0.016-0.161-0.021-0.325-0.021-0.49h0.021
			c0.005-0.566,0.017-1.037,0.035-1.416c0.607-12.379,7.946-25.093,18.23-34.606c10.123-9.362,23.249-15.771,35.751-15.842
			c0.167-0.014,0.337-0.021,0.508-0.021v0.02c0.599,0.005,1.103,0.019,1.509,0.037c4.275,0.21,8.559,0.977,12.758,2.217
			C345.653,143.852,231.643,25.452,219.2,12.544c-56.9-12.215-67.436,36.007-69.084,46.983l43.089,48.588l0.015-0.013
			c1.916,2.161,1.718,5.466-0.442,7.382c-0.92,0.815-2.049,1.249-3.188,1.309L15.952,136.509L201.575,340.74
			c17.034-2.013,112.657-13.363,169.855-21.328c38.572-5.373,59.342-17.45,68.139-31.437c4.054-6.445,5.513-13.355,4.988-20.185
			c-0.538-7.011-3.148-13.971-7.189-20.309c-1.925-3.02-4.163-5.893-6.648-8.561c1.889,1.983,5.021,2.169,7.135,0.372
			c2.168-1.844,2.448-5.082,0.646-7.27c2.862,3.081,5.438,6.388,7.653,9.86c4.949,7.762,8.15,16.367,8.823,25.13
			c0.688,8.945-1.238,18.021-6.582,26.517c-10.3,16.377-33.462,30.355-75.533,36.217c-61.649,8.586-166.389,20.934-172.459,21.647
			c-1.698,0.289-3.506-0.269-4.751-1.639l0.008-0.006L1.573,136.21c-0.83-0.812-1.396-1.902-1.538-3.146
			c-0.326-2.869,1.735-5.46,4.605-5.786l0.59,5.196l-0.571-5.188l174.091-19.768l-37.69-42.501
			c-1.129-1.069-1.771-2.627-1.612-4.295l0.019,0.002c0.035-0.386,6.516-75.466,83.131-58.123c1.11,0.159,2.177,0.675,3.016,1.545
			l-3.764,3.63l3.759-3.615c0.462,0.479,160.705,166.543,212.841,227.802l0.054,0.063l-0.058-0.062L430.521,238.704L430.521,238.704
			z M430.684,238.886l0.035,0.037L430.684,238.886z M392.927,220.454h-0.014 M348.891,261.961v0.021"/>
		<path fill="#2980B9" d="M193.107,107.998c-1.975-2.099-5.275-2.199-7.374-0.225c-2.099,1.974-2.198,5.275-0.226,7.375
			l172.077,182.938c1.974,2.1,5.274,2.199,7.373,0.226c2.099-1.975,2.198-5.275,0.226-7.374L193.107,107.998L193.107,107.998z"/>
	</g>
</g>
<rect x="0" y="13.5" fill="none" width="612" height="612"/>
<text transform="matrix(1 0 0 1 -0.0251 1970.2146)" font-family="'Arial-BoldMT'" font-size="448.2426">Created by IYIKON</text>
<text transform="matrix(1 0 0 1 -0.0251 2418.4646)" font-family="'Arial-BoldMT'" font-size="448.2426">from the Noun Project</text>
</svg>
