<?xml version="1.0" encoding="utf-8"?>
<!-- Generator: Adobe Illustrator 16.0.0, SVG Export Plug-In . SVG Version: 6.00 Build 0)  -->
<!DOCTYPE svg PUBLIC "-//W3C//DTD SVG 1.1//EN" "http://www.w3.org/Graphics/SVG/1.1/DTD/svg11.dtd">
<svg version="1.1" id="Layer_1" xmlns="http://www.w3.org/2000/svg" xmlns:xlink="http://www.w3.org/1999/xlink" x="0px" y="0px"
	 width="273.891px" height="489.6px" viewBox="0 0 273.891 489.6" enable-background="new 0 0 273.891 489.6" xml:space="preserve">
<path fill="#2980B9" d="M26.44,295.565h89.328v32.975h-4.56c-3.256,0-5.942,2.545-6.114,5.795l-6.126,117.168
	c0,21.01,17.094,38.096,38.104,38.096c21.011,0,38.098-17.086,38.092-38.414l-6.12-116.85c-0.172-3.25-2.858-5.795-6.114-5.795
	h-4.56v-32.975h89.069c9.046,0,17.356-4.541,22.247-12.148c4.884-7.607,5.558-17.057,1.793-25.282L160.615,15.869
	C156.135,6.071,146.668,0,135.903,0c-0.036,0-0.073,0-0.109,0c-10.814,0.037-20.271,6.188-24.694,16.046L2.334,258.301
	c-3.69,8.22-2.968,17.638,1.916,25.19C9.145,291.049,17.444,295.565,26.44,295.565z M137.072,477.359
	c-14.26,0-25.862-11.604-25.868-25.531l5.813-111.054h40.1l5.808,110.729C162.923,465.756,151.325,477.359,137.072,477.359z
	 M128.008,328.534v-99.266c0-4.994,4.063-9.058,9.058-9.058c4.988,0,9.053,4.063,9.053,9.058v99.266H128.008z M13.497,263.313
	l108.77-242.254c2.467-5.496,7.54-8.801,13.574-8.813c0.024,0,0.043,0,0.067,0c6.004,0,11.083,3.256,13.586,8.721l110.857,242.261
	c2.05,4.479,1.694,9.431-0.961,13.573c-2.669,4.149-7.014,6.524-11.946,6.524h-89.083v-54.052c0-11.744-9.554-21.297-21.291-21.297
	s-21.298,9.56-21.298,21.297v54.052H26.44c-4.907,0-9.247-2.362-11.909-6.481C11.869,272.719,11.489,267.799,13.497,263.313z"/>
</svg>
