<?xml version="1.0" encoding="UTF-8" standalone="no"?><!DOCTYPE svg PUBLIC "-//W3C//DTD SVG 1.1//EN" "http://www.w3.org/Graphics/SVG/1.1/DTD/svg11.dtd"><svg width="100%" height="100%" viewBox="0 0 413 384" version="1.1" xmlns="http://www.w3.org/2000/svg" xmlns:xlink="http://www.w3.org/1999/xlink" xml:space="preserve" style="fill:#2980b9;fill-rule:evenodd;clip-rule:evenodd;stroke-linejoin:round;stroke-miterlimit:1.41421;"><g><path d="M286.777,170.612l-29.584,0l0,16.463l-80.281,0l-5.459,11.137l-19.634,-34.761c12.949,-9.596 22.058,-23.28 25.882,-39.137c4.32,-17.907 1.407,-36.426 -8.2,-52.148l-33.821,-55.337l8.385,-5.128c2.98,-1.817 3.916,-5.704 2.1,-8.678c-1.817,-2.974 -5.704,-3.917 -8.686,-2.093l-134.456,82.178c-2.975,1.824 -3.917,5.716 -2.093,8.684c1.817,2.968 5.704,3.917 8.678,2.099l8.386,-5.128l33.818,55.331c12.631,20.673 34.657,33.017 58.904,33.017c10.551,0 20.876,-2.57 30.325,-7.221l23.715,41.982l-4.547,9.278l-50.688,0l-14.062,30.05l-34.981,0l0,-17.938c0,-3.464 -2.804,-6.272 -6.268,-6.272c-3.47,0 -6.279,2.809 -6.279,6.272l0,51.278c0,3.465 2.811,6.272 6.279,6.272c3.464,0 6.268,-2.81 6.268,-6.272l0,-20.789l29.106,0l-14.474,30.924l23.194,0l-25.11,64.248c-3.604,9.234 0.575,19.527 9.31,22.938c2.252,0.881 4.356,1.311 6.438,1.311c9.063,0 13.936,-8.293 15.35,-10.723l52.308,-77.773l19.364,0l0,51.029c0,3.471 2.803,6.278 6.285,6.278c3.457,0 6.267,-2.81 6.267,-6.278l0,-51.029l68.666,0l0,13.551l29.584,0c10.135,0 18.372,-8.244 18.372,-18.379l0,-100.857c0.011,-10.135 -8.226,-18.379 -18.361,-18.379Zm-224.953,-32.626l-33.819,-55.331l97.663,-59.694l33.825,55.343c7.975,13.042 10.393,28.409 6.806,43.262c-3.586,14.866 -12.748,27.43 -25.789,35.398c-8.997,5.508 -19.297,8.415 -29.786,8.415c-20.135,0.007 -38.41,-10.238 -48.9,-27.393Zm32.553,228.221c-2.044,3.465 -3.868,5.233 -5.423,5.233c-0.587,0 -1.315,-0.172 -2.166,-0.509c-2.705,-1.053 -3.894,-4.521 -2.645,-7.729l26.774,-68.521l31.549,0l-48.089,71.526Zm162.002,-83.256l-162.804,0l23.427,-50.043l50.533,0l16.694,-34.088l72.154,0l0,84.133l-0.005,0l0,-0.002l0.001,0Zm37.032,6.909c0,3.666 -2.976,6.642 -6.635,6.642l-17.846,0l0,-114.152l17.847,0c3.659,0 6.635,2.98 6.635,6.641l0,100.869l-0.001,0Z" /><path d="M406.153,234.21l-70.68,0c-3.476,0 -6.285,2.81 -6.285,6.285c0,3.459 2.811,6.268 6.285,6.268l70.68,0c3.465,0 6.273,-2.809 6.273,-6.268c0,-3.475 -2.81,-6.285 -6.273,-6.285Z"/><path d="M334.569,220.233l66.48,-23.972c3.262,-1.182 4.963,-4.78 3.774,-8.036c-1.168,-3.268 -4.766,-4.963 -8.035,-3.782l-66.493,23.979c-3.263,1.175 -4.949,4.773 -3.775,8.041c1.186,3.262 4.773,4.945 8.049,3.77Z"/><path d="M401.049,284.726l-66.48,-23.979c-3.274,-1.181 -6.861,0.508 -8.043,3.765c-1.168,3.269 0.514,6.866 3.777,8.042l66.492,23.979c3.264,1.176 6.86,-0.521 8.036,-3.781c1.175,-3.258 -0.52,-6.852 -3.782,-8.026Z"/></g></svg>