<?xml version="1.0" encoding="UTF-8" standalone="no"?><!DOCTYPE svg PUBLIC "-//W3C//DTD SVG 1.1//EN" "http://www.w3.org/Graphics/SVG/1.1/DTD/svg11.dtd"><svg width="100%" height="100%" viewBox="0 0 429 527" version="1.1" xmlns="http://www.w3.org/2000/svg" xmlns:xlink="http://www.w3.org/1999/xlink" xml:space="preserve" style="fill-rule:evenodd;clip-rule:evenodd;stroke-linejoin:round;stroke-miterlimit:1.41421;"><path d="M402.151,0.039c-8.68,0.2 -17.077,4.709 -21.77,12.628c-0.006,0.01 -0.014,0.021 -0.02,0.031l-84.929,145.227c-42.854,-14.964 -87.772,-6.886 -109.943,23.417c-0.044,0.06 -0.087,0.121 -0.128,0.182c-44.377,65.514 -73.178,92.966 -181.949,146.675c-3.03,1.498 -4.274,5.168 -2.778,8.198c0.451,0.914 1.124,1.7 1.956,2.289l59.479,42.03c1.3,0.918 2.903,1.295 4.475,1.051c14.631,-2.281 28.941,-6.347 40.687,-13.681c-4.128,9.769 -9.061,18.599 -14.819,26.405c-2.006,2.721 -1.426,6.553 1.296,8.559c0.03,0.023 0.062,0.045 0.093,0.066l41.999,29.76c2.146,1.512 5.018,1.488 7.137,-0.063c11.337,-8.237 21.209,-17.866 38.677,-46.542c0.044,3.645 -0.154,7.542 -0.41,19.342c0,0.002 0,0.002 0,0.004c-0.251,11.215 -6.584,27.739 -15.024,41.793c-1.649,2.745 -0.901,6.299 1.716,8.147l33.258,23.506c2.394,1.689 5.646,1.449 7.764,-0.576c4.881,-4.666 10.365,-11.426 16.819,-21.803c4.119,8.826 4.662,13.801 4.741,18.07c0.065,5.446 0.602,9.344 -1.908,18.815c-0.653,2.471 0.297,5.088 2.386,6.564l35.487,25.067c2.762,1.949 6.58,1.293 8.53,-1.469c0.705,-0.998 1.096,-2.186 1.12,-3.408c0.674,-33.961 14.592,-85.223 49.337,-145.797c0.002,-0.004 0.004,0 0.005,0c6.849,-11.885 15.865,-28.123 23.769,-41.429c0.009,-0.021 0.017,-0.041 0.023,-0.061l22.114,-37.864c0,0 0.001,0 0.002,0c0.372,-0.64 1.026,-1.695 1.673,-2.841c0.585,-1.036 1.186,-1.995 1.676,-3.59c15.12,-34.029 -0.28,-76.313 -34.612,-105.369l84.871,-145.128c0.001,-0.002 0.002,-0.004 0.003,-0.006c7.098,-12.112 2.811,-27.888 -9.402,-34.863c-0.004,-0.002 -0.008,-0.004 -0.014,-0.006c-4.21,-2.389 -8.833,-3.467 -13.379,-3.362l-0.008,0.032Zm0.239,12.215c2.399,-0.055 4.848,0.518 7.086,1.784c6.438,3.677 8.604,11.751 4.911,18.048c0,0.002 -0.001,0.003 -0.002,0.005l-87.521,149.659c-1.546,2.645 -0.897,6.025 1.516,7.912c32.237,25.183 46.456,61.509 36.837,89.758l-166.552,-94.912c19.997,-22.327 59.041,-28.347 97.226,-13.367c2.807,1.101 5.996,-0.006 7.518,-2.608l87.501,-149.626c0.007,-0.012 0.014,-0.018 0.02,-0.031c2.469,-4.144 6.879,-6.52 11.46,-6.622Zm-211.026,182.181l168.555,96.053l-21.24,36.369l-0.023,0.063c-8.044,13.545 -17.079,29.82 -23.833,41.543c-0.002,0 -0.004,0 -0.006,0c-32.064,55.898 -47.164,104.286 -50.341,140.402l-23.088,-16.311c1.757,-8.428 1.373,-13.869 1.326,-17.949c0,-0.02 0,-0.041 0,-0.061c-0.132,-7.136 -1.945,-17.121 -11.378,-33.457c-1.69,-2.929 -5.435,-3.933 -8.361,-2.24c-0.953,0.549 -1.739,1.348 -2.278,2.307c-6.765,12.064 -12.292,19.793 -16.786,24.883l-24.396,-17.239c7.775,-13.988 13.625,-29.326 13.927,-42.896c0,-0.002 0,-0.004 0,-0.004c0.526,-24.237 0.807,-16.286 -0.834,-40.437c-0.229,-3.373 -3.147,-5.92 -6.521,-5.69c-2.05,0.14 -3.894,1.298 -4.907,3.084c-21.607,38.075 -31.132,49.019 -41.95,57.448l-33.395,-23.662c9.403,-14.161 16.4,-30.723 21.242,-49.249c0.854,-3.271 -1.106,-6.614 -4.378,-7.468c-2.624,-0.686 -5.386,0.438 -6.785,2.761c-9.111,15.116 -27.313,22.886 -48.841,26.578l-49.054,-34.666c98.917,-49.636 131.777,-79.859 173.347,-140.164l-0.002,0.002Z" style="fill:#2980b9;fill-rule:nonzero;"/></svg>