<?xml version="1.0" encoding="UTF-8" standalone="no"?><!DOCTYPE svg PUBLIC "-//W3C//DTD SVG 1.1//EN" "http://www.w3.org/Graphics/SVG/1.1/DTD/svg11.dtd"><svg width="100%" height="100%" viewBox="0 0 465 530" version="1.1" xmlns="http://www.w3.org/2000/svg" xmlns:xlink="http://www.w3.org/1999/xlink" xml:space="preserve" style="fill-rule:evenodd;clip-rule:evenodd;stroke-linejoin:round;stroke-miterlimit:1.41421;"><path d="M291.313,321.912c0.611,0 1.225,0 1.225,0l146.268,-17.137c14.688,-1.836 25.704,-14.075 25.704,-28.764l0,-95.471l0,-137.7c0,-23.868 -18.973,-42.84 -42.84,-42.84l-378.83,0c-23.867,0 -42.84,18.972 -42.84,42.84l0,233.172c0,14.688 11.017,26.928 25.704,28.764l146.269,17.137c9.792,1.836 15.911,10.404 14.688,20.195c0,0.613 0,1.225 -0.612,1.836c-4.896,29.377 -16.523,106.487 -16.523,123.013c0,34.884 28.152,63.036 63.036,63.036c34.884,0 63.035,-28.152 63.035,-63.036c0,-17.136 -12.239,-97.308 -16.523,-123.624c-2.45,-9.181 3.058,-18.974 12.239,-21.421Zm-279.073,-279.072c0,-17.136 13.464,-30.6 30.6,-30.6l91.801,0l0,53.856c0,3.672 2.447,6.12 6.12,6.12c3.672,0 6.119,-2.448 6.119,-6.12l0,-53.856l79.561,0l0,84.456c0,3.672 2.447,6.12 6.12,6.12c3.672,0 6.119,-2.448 6.119,-6.12l0,-84.456l79.561,0l0,53.856c0,3.672 2.448,6.12 6.12,6.12c3.672,0 6.12,-2.448 6.12,-6.12l0,-53.856l91.8,0c17.136,0 30.601,13.464 30.601,30.6l0,131.58l-440.642,0l0,-131.58Zm254.592,302.939c5.508,34.271 16.523,106.487 16.523,121.177c0,28.152 -22.645,50.796 -50.796,50.796c-28.151,0 -50.796,-22.644 -50.796,-50.796c0,-14.688 10.403,-86.292 16.523,-120.563c0,-0.611 0.611,-1.836 0.611,-2.449c2.448,-16.522 -8.567,-31.822 -25.092,-34.271l-146.265,-17.137c-8.567,-1.224 -14.688,-7.956 -14.688,-16.524l0,-89.352l440.028,0l0,89.352c0,8.568 -6.12,15.912 -14.688,16.524l-146.88,17.136c-0.611,0 -1.837,0.612 -2.448,0.612c-16.524,4.284 -25.704,20.196 -22.032,35.495Z"/></svg>