<?xml version="1.0" encoding="UTF-8" standalone="no"?><!DOCTYPE svg PUBLIC "-//W3C//DTD SVG 1.1//EN" "http://www.w3.org/Graphics/SVG/1.1/DTD/svg11.dtd"><svg width="100%" height="100%" viewBox="0 0 512 512" version="1.1" xmlns="http://www.w3.org/2000/svg" xmlns:xlink="http://www.w3.org/1999/xlink" xml:space="preserve" style="fill-rule:evenodd;clip-rule:evenodd;stroke-linejoin:round;stroke-miterlimit:1.41421;"><path d="M494.199,180.017l-164.428,0c-9.815,0 -17.801,7.986 -17.801,17.801l0,72.516c0,4.213 3.416,7.629 7.629,7.629c4.213,0 7.629,-3.416 7.629,-7.629l0,-34.006l71.542,0c1.402,0 2.543,1.141 2.543,2.543l0,151.175c0,1.402 -1.141,2.543 -2.543,2.543l-71.542,0l0,-87.474c0,-4.213 -3.416,-7.629 -7.629,-7.629c-4.213,0 -7.629,3.416 -7.629,7.629l0,176.303c0,9.815 7.986,17.801 17.801,17.801l164.428,0c9.815,0 17.801,-7.986 17.801,-17.801l0,-283.6c0,-9.815 -7.986,-17.801 -17.801,-17.801Zm-166.971,227.831l71.541,0l0,-0.001c9.815,0 17.801,-7.986 17.801,-17.801l0,-151.175c0,-9.815 -7.986,-17.801 -17.801,-17.801l-71.542,0l0,-23.252c0,-1.402 1.141,-2.543 2.543,-2.543l164.428,0c1.402,0 2.543,1.141 2.543,2.543l0,242.411l-169.513,0l0,-32.381Zm169.514,73.57c0,1.402 -1.141,2.543 -2.543,2.543l-164.428,0c-1.402,0 -2.543,-1.141 -2.543,-2.543l0,-25.932l169.514,0l0,25.932Z" style="fill:#2980b9;fill-rule:nonzero;"/><path d="M276.226,90.729l-87.466,0c-4.213,0 -7.629,3.416 -7.629,7.629c0,4.213 3.416,7.629 7.629,7.629l87.466,0c4.213,0 7.629,-3.416 7.629,-7.629c0,-4.213 -3.416,-7.629 -7.629,-7.629Z" style="fill:#2980b9;fill-rule:nonzero;"/><path d="M281.62,52.682l-37.666,-37.666c-2.979,-2.979 -7.81,-2.979 -10.788,0c-2.979,2.979 -2.979,7.81 0,10.788l37.666,37.666c1.489,1.489 3.442,2.235 5.394,2.235c1.952,0 3.905,-0.745 5.394,-2.235c2.979,-2.979 2.979,-7.809 0,-10.788Z" style="fill:#2980b9;fill-rule:nonzero;"/><path d="M281.619,133.245c-2.978,-2.979 -7.809,-2.979 -10.788,0l-37.666,37.666c-2.979,2.979 -2.979,7.81 0,10.788c1.489,1.49 3.442,2.235 5.394,2.235c1.952,0 3.905,-0.745 5.394,-2.235l37.666,-37.666c2.979,-2.979 2.979,-7.81 0,-10.788Z" style="fill:#2980b9;fill-rule:nonzero;"/><path d="M485.926,156.407c-7.969,-18.84 -22.522,-33.453 -40.322,-41.65l0,-46.508c0,-9.815 -7.986,-17.801 -17.801,-17.801l-31.636,0c-9.815,0 -17.801,7.986 -17.801,17.801l0,46.63c-18.604,8.645 -33.746,24.253 -41.335,44.044c-1.508,3.934 0.458,8.346 4.392,9.855c0.898,0.344 1.822,0.508 2.73,0.508c3.068,0 5.961,-1.865 7.125,-4.9c9.571,-24.96 33.967,-41.73 60.708,-41.73c8.011,0 15.77,1.466 22.976,4.182c0.196,0.084 0.398,0.158 0.601,0.225c16.073,6.241 29.319,18.759 36.31,35.29c1.642,3.88 6.115,5.695 9.999,4.055c3.88,-1.644 5.695,-6.121 4.054,-10.001Zm-55.58,-46.888c-5.932,-1.387 -12.083,-2.122 -18.361,-2.122c-6.26,0 -12.415,0.748 -18.362,2.165l0,-41.313c0,-1.402 1.141,-2.543 2.543,-2.543l31.636,0c1.402,0 2.543,1.141 2.543,2.543l0,41.27l0.001,0Z" style="fill:#2980b9;fill-rule:nonzero;"/><path d="M258.941,234.142l-74.421,0c0.12,-0.833 0.203,-1.677 0.203,-2.543l0,-72.589c0,-9.815 -7.986,-17.801 -17.801,-17.801l-149.121,0c-9.815,0.001 -17.801,7.987 -17.801,17.802l0,72.589c0,9.815 7.986,17.801 17.801,17.801l74.421,0c-0.12,0.833 -0.203,1.677 -0.203,2.543l0,72.589c0,0.99 0.102,1.955 0.258,2.902l-73.563,0c-9.815,0 -17.801,7.986 -17.801,17.801l0,72.589c0,9.815 7.986,17.801 17.801,17.801l149.121,0c9.815,0 17.801,-7.986 17.801,-17.801l0,-72.589c0,-0.99 -0.102,-1.955 -0.258,-2.902l73.562,0c9.815,0 17.801,-7.986 17.801,-17.801l0,-72.589c0.001,-9.817 -7.985,-17.802 -17.8,-17.802Zm-241.14,0c-1.402,0 -2.543,-1.141 -2.543,-2.543l0,-72.589c0,-1.402 1.141,-2.543 2.543,-2.543l149.121,0c1.402,0 2.543,1.141 2.543,2.543l0,72.589c0,1.402 -1.141,2.543 -2.543,2.543l-57.103,0l-92.018,0Zm150.035,186.224l-149.122,0c-1.402,0 -2.543,-1.141 -2.543,-2.543l0,-72.589c0,-1.402 1.141,-2.543 2.543,-2.543l149.121,0c1.402,0 2.543,1.141 2.543,2.543l0,72.589l0.001,0c0,1.401 -1.141,2.543 -2.543,2.543Zm91.105,-93.291l-149.122,0c-1.402,0 -2.543,-1.141 -2.543,-2.543l0,-72.589c0,-1.402 1.141,-2.543 2.543,-2.543l149.121,0c1.402,0 2.543,1.141 2.543,2.543l0,72.589l0.001,0c0,1.402 -1.141,2.543 -2.543,2.543Z" style="fill:#2980b9;fill-rule:nonzero;"/></svg>