<?xml version="1.0" encoding="UTF-8" standalone="no"?><!DOCTYPE svg PUBLIC "-//W3C//DTD SVG 1.1//EN" "http://www.w3.org/Graphics/SVG/1.1/DTD/svg11.dtd"><svg width="100%" height="100%" viewBox="0 0 291 291" version="1.1" xmlns="http://www.w3.org/2000/svg" xmlns:xlink="http://www.w3.org/1999/xlink" xml:space="preserve" style="fill:#2980b9;fill-rule:evenodd;clip-rule:evenodd;stroke-linejoin:round;stroke-miterlimit:1.41421;"><g><path d="M145.745,0l-53.091,33.628c-7.552,-5.048 -12.534,-13.645 -12.534,-23.391l-9.375,0c0,15.511 -12.614,28.125 -28.125,28.125l0,9.375c6.553,0 12.572,2.269 17.358,6.038l-59.546,38.278l0,57.952l28.125,-17.813l0,37.42c0,12.923 -10.514,23.438 -23.438,23.438l0,9.375c12.923,0 23.438,10.514 23.438,23.438l0,65.625l234.375,0l0,-159.296l28.125,17.813l0,-57.975l-145.312,-92.03Zm-70.313,28.378c3.417,6.155 8.517,11.255 14.672,14.672c-6.155,3.417 -11.255,8.513 -14.672,14.672c-1.88,-3.389 -4.308,-6.412 -7.106,-9.056l-0.117,-0.183l-0.052,0.033c-2.24,-2.096 -4.697,-3.966 -7.397,-5.466c6.155,-3.417 11.254,-8.513 14.672,-14.672Zm-53.424,169.36c4.594,-2.77 8.466,-6.642 11.236,-11.236c2.77,4.594 6.642,8.47 11.236,11.236c-4.594,2.77 -8.466,6.642 -11.236,11.236c-2.77,-4.594 -6.642,-8.466 -11.236,-11.236Zm109.674,84.375l-56.25,0l0,-0.001l0,-121.874l56.25,0l0,121.875Zm121.875,-0.001l-112.5,0l0,-131.25l-75,0l0,131.25l-28.125,0l0,-56.25c0,-12.923 10.514,-23.438 23.438,-23.438l0,-9.375c-12.923,0 -23.438,-10.514 -23.438,-23.438l0,-43.355l107.812,-68.283l30.22,19.139c-7.669,7.884 -18.375,12.811 -30.22,12.811l0,9.377c23.259,0 42.188,18.923 42.188,42.188l9.375,0c0,-15.919 8.869,-29.798 21.919,-36.98l34.331,21.745l0,155.859Zm-60.937,-212.901c5.152,11.203 14.203,20.25 25.397,25.402c-11.198,5.152 -20.245,14.198 -25.397,25.402c-5.152,-11.203 -14.203,-20.25 -25.397,-25.402c11.194,-5.152 20.244,-14.199 25.397,-25.402Zm89.062,63.759l-51.479,-32.606c2.995,-0.675 6.094,-1.064 9.291,-1.064l0,-9.375c-23.259,0 -42.188,-18.923 -42.188,-42.188l-9.375,0c0,8.034 -2.297,15.525 -6.211,21.923l-35.977,-22.786l-135.936,86.096l0,-35.798l56.541,-36.347c2.77,4.355 4.397,9.506 4.397,15.037l9.375,0c0,-15.511 12.614,-28.125 28.125,-28.125l0,-9.375c-1.655,0 -3.267,-0.173 -4.842,-0.445l42.342,-26.817l135.938,86.095l0,35.775l-0.001,0Z" style="fill:#2980b9;fill-rule:nonzero;"/><path d="M159.807,207.113l70.313,0l0,-56.25l-70.313,0l0,56.25Zm9.375,-46.875l51.563,0l0,37.5l-51.563,0l0,-37.5l0,0Z" style="fill:#2980b9;fill-rule:nonzero;"/><rect x="112.932" y="221.175" width="9.375" height="9.375"/><rect x="201.995" y="169.613" width="9.375" height="9.375"/><rect x="234.807" y="263.362" width="9.375" height="9.375"/><rect x="216.057" y="263.362" width="9.375" height="9.375"/><rect x="197.307" y="263.362" width="9.375" height="9.375"/></g></svg>