<?xml version="1.0" encoding="UTF-8" standalone="no"?><!DOCTYPE svg PUBLIC "-//W3C//DTD SVG 1.1//EN" "http://www.w3.org/Graphics/SVG/1.1/DTD/svg11.dtd"><svg width="100%" height="100%" viewBox="0 0 81 100" version="1.1" xmlns="http://www.w3.org/2000/svg" xmlns:xlink="http://www.w3.org/1999/xlink" xml:space="preserve" style="fill-rule:evenodd;clip-rule:evenodd;stroke-linejoin:round;stroke-miterlimit:1.41421;"><path d="M61.652,1.142l0,18.227l18.12,0l-18.12,-18.227Zm-28.759,62.069l-1.395,0l0,6.378l1.395,0c1.064,0 1.862,-0.262 2.395,-0.787c0.532,-0.525 0.798,-1.328 0.798,-2.41c0,-1.081 -0.266,-1.881 -0.798,-2.401c-0.533,-0.52 -1.331,-0.78 -2.395,-0.78m-9.844,-0.14l-2.047,0l0,2.698l2.047,0c0.527,0 0.917,-0.11 1.17,-0.328c0.254,-0.218 0.38,-0.556 0.38,-1.014c0,-0.904 -0.517,-1.356 -1.55,-1.356m23.796,2.105c0.455,0 0.793,0.094 1.015,0.281c0.222,0.187 0.333,0.473 0.333,0.857c0,0.385 -0.111,0.666 -0.333,0.842c-0.222,0.177 -0.56,0.266 -1.015,0.266l-3.411,0l0,3.15c0,0.436 -0.127,0.782 -0.38,1.037c-0.253,0.255 -0.591,0.382 -1.015,0.382c-0.424,0 -0.765,-0.13 -1.023,-0.39c-0.259,-0.26 -0.388,-0.603 -0.388,-1.029l0,-8.343c0,-0.427 0.114,-0.754 0.341,-0.983c0.228,-0.228 0.553,-0.343 0.977,-0.343l5.209,0c0.465,0 0.806,0.091 1.023,0.273c0.217,0.182 0.325,0.471 0.325,0.865c0,0.385 -0.111,0.666 -0.333,0.843c-0.222,0.176 -0.561,0.265 -1.015,0.265l-3.721,0l0,2.027l3.411,0Zm-8.612,4.172c-0.46,0.826 -1.126,1.458 -2,1.894c-0.873,0.437 -1.919,0.655 -3.139,0.655l-3.131,0c-0.424,0 -0.75,-0.114 -0.977,-0.343c-0.227,-0.229 -0.341,-0.556 -0.341,-0.982l0,-8.343c0,-0.427 0.114,-0.754 0.341,-0.983c0.227,-0.228 0.553,-0.343 0.977,-0.343l3.131,0c1.209,0 2.25,0.221 3.124,0.663c0.873,0.442 1.543,1.073 2.008,1.895c0.465,0.821 0.697,1.798 0.697,2.931c0,1.144 -0.23,2.129 -0.69,2.956Zm-11.983,-2.363c-0.677,0.624 -1.615,0.936 -2.814,0.936l-2.433,0l0,2.651c0,0.436 -0.13,0.782 -0.388,1.037c-0.258,0.255 -0.61,0.382 -1.054,0.382c-0.434,0 -0.778,-0.127 -1.031,-0.382c-0.253,-0.255 -0.38,-0.601 -0.38,-1.037l0,-8.343c0,-0.427 0.114,-0.754 0.341,-0.983c0.228,-0.228 0.553,-0.343 0.977,-0.343l3.968,0c1.21,0 2.15,0.309 2.822,0.928c0.672,0.619 1.008,1.479 1.008,2.581c0,1.091 -0.339,1.949 -1.016,2.573Zm37.288,-15.064l-61.6,0c-1.07,0 -1.938,0.873 -1.938,1.949l0,25.22c0,1.077 0.868,1.949 1.938,1.949l61.6,0c1.07,0 1.937,-0.872 1.937,-1.949l0,-25.22c0,-1.076 -0.867,-1.949 -1.937,-1.949Zm-3.824,-28.653c-1.07,0 -1.938,-0.873 -1.938,-1.949l0,-21.319l-51.212,0c-1.07,0 -1.938,0.873 -1.938,1.949l0,46.148l62.829,0c1.07,0 1.937,0.873 1.937,1.949l0,32.786c0,1.077 -0.867,1.949 -1.937,1.949l-62.829,0l0,13.023c0,1.077 0.868,1.95 1.938,1.95l72.405,0c1.07,0 1.938,-0.873 1.938,-1.95l0,-74.536l-21.193,0Z" style="fill:#2980b9;"/></svg>