<?xml version="1.0" encoding="UTF-8" standalone="no"?>
<!DOCTYPE svg PUBLIC "-//W3C//DTD SVG 1.1//EN" "http://www.w3.org/Graphics/SVG/1.1/DTD/svg11.dtd">
<svg width="100%" height="100%" viewBox="0 0 274 490" version="1.1" xmlns="http://www.w3.org/2000/svg" xmlns:xlink="http://www.w3.org/1999/xlink" xml:space="preserve" style="fill-rule:evenodd;clip-rule:evenodd;stroke-linejoin:round;stroke-miterlimit:1.41421;">
    <g transform="matrix(1,0,0,1,-0.000771674,0)">
        <path d="M26.44,295.565L115.768,295.565L115.768,328.54L111.208,328.54C107.952,328.54 105.266,331.085 105.094,334.335L98.968,451.503C98.968,472.513 116.062,489.599 137.072,489.599C158.083,489.599 175.17,472.513 175.164,451.185L169.044,334.335C168.872,331.085 166.186,328.54 162.93,328.54L158.37,328.54L158.37,295.565L247.439,295.565C256.485,295.565 264.795,291.024 269.686,283.417C274.57,275.81 275.244,266.36 271.479,258.135L160.615,15.869C156.135,6.071 146.668,0 135.903,0C135.867,0 135.83,0 135.794,0C124.98,0.037 115.523,6.188 111.1,16.046L2.334,258.301C-1.356,266.521 -0.634,275.939 4.25,283.491C9.145,291.049 17.444,295.565 26.44,295.565ZM137.072,477.359C122.812,477.359 111.21,465.755 111.204,451.828L117.017,340.774L157.117,340.774L162.925,451.503C162.923,465.756 151.325,477.359 137.072,477.359ZM128.008,328.534L128.008,229.268C128.008,224.274 132.071,220.21 137.066,220.21C142.054,220.21 146.119,224.273 146.119,229.268L146.119,328.534L128.008,328.534ZM13.497,263.313L122.267,21.059C124.734,15.563 129.807,12.258 135.841,12.246C135.865,12.246 135.884,12.246 135.908,12.246C141.912,12.246 146.991,15.502 149.494,20.967L260.351,263.228C262.401,267.707 262.045,272.659 259.39,276.801C256.721,280.95 252.376,283.325 247.444,283.325L158.361,283.325L158.361,229.273C158.361,217.529 148.807,207.976 137.07,207.976C125.333,207.976 115.772,217.536 115.772,229.273L115.772,283.325L26.44,283.325C21.533,283.325 17.193,280.963 14.531,276.844C11.869,272.719 11.489,267.799 13.497,263.313Z" style="fill:rgb(41,128,185);fill-rule:nonzero;"/>
    </g>
</svg>
