<?xml version="1.0" encoding="UTF-8" standalone="no"?><!DOCTYPE svg PUBLIC "-//W3C//DTD SVG 1.1//EN" "http://www.w3.org/Graphics/SVG/1.1/DTD/svg11.dtd"><svg width="100%" height="100%" viewBox="0 0 512 512" version="1.1" xmlns="http://www.w3.org/2000/svg" xmlns:xlink="http://www.w3.org/1999/xlink" xml:space="preserve" style="fill-rule:evenodd;clip-rule:evenodd;stroke-linejoin:round;stroke-miterlimit:1.41421;"><path d="M506.816,268.181l-145.984,-87.595l18.219,-11.584c3.072,-1.963 4.928,-5.355 4.928,-9.003c0,-3.648 -1.856,-7.04 -4.928,-9.003l-117.333,-74.665c-3.499,-2.219 -7.957,-2.219 -11.456,0l-117.333,74.667c-3.073,1.962 -4.929,5.354 -4.929,9.002c0,3.648 1.856,7.04 4.928,9.003l18.219,11.605l-145.963,87.573c-3.2,1.92 -5.184,5.376 -5.184,9.109c-0.021,3.733 1.92,7.211 5.12,9.152l245.333,149.333c1.707,1.045 3.627,1.557 5.547,1.557c1.92,0 3.84,-0.512 5.547,-1.557l245.333,-149.332c3.2,-1.963 5.12,-5.419 5.12,-9.152c-0.021,-3.734 -1.984,-7.19 -5.184,-9.11Zm-250.816,-170.197l97.472,62.016l-97.472,62.016l-97.472,-62.016l97.472,-62.016Zm-84.736,95.424l78.997,50.261c1.749,1.109 3.755,1.664 5.739,1.664c1.984,0 3.989,-0.555 5.717,-1.664l78.997,-50.283l14.059,8.448l-98.773,62.87l-98.795,-62.869l14.059,-8.427Zm-139.968,83.947l105.472,-63.253l99.371,63.232l-100.181,63.744l-104.662,-63.723Zm224.704,136.81l-99.733,-60.715l99.733,-63.466l99.733,63.467l-99.733,60.714Zm120.043,-73.066l-100.181,-63.765l99.371,-63.232l105.472,63.275l-104.662,63.722Z" style="fill:#2980b9;fill-rule:nonzero;"/></svg>