<?xml version="1.0" encoding="UTF-8" standalone="no"?><!DOCTYPE svg PUBLIC "-//W3C//DTD SVG 1.1//EN" "http://www.w3.org/Graphics/SVG/1.1/DTD/svg11.dtd"><svg width="100%" height="100%" viewBox="0 0 31 31" version="1.1" xmlns="http://www.w3.org/2000/svg" xmlns:xlink="http://www.w3.org/1999/xlink" xml:space="preserve" style="fill-rule:evenodd;clip-rule:evenodd;stroke-linejoin:round;stroke-miterlimit:1.41421;"><g><path d="M0,8.2l0,21c0,1 0.8,1.8 1.8,1.8l27.4,0c1,0 1.8,-0.8 1.8,-1.8l0,-21l-31,0Zm22.8,8c0,0.4 -0.3,0.8 -0.8,0.8l-9.1,0c-0.4,0 -0.8,-0.3 -0.8,-0.8c0,-0.4 0.3,-0.8 0.8,-0.8l9.1,0c0.5,0.1 0.8,0.4 0.8,0.8Zm-18.6,-3.9c0,-0.4 0.3,-0.8 0.8,-0.8l9.1,0c0.4,0 0.8,0.3 0.8,0.8c0,0.4 -0.3,0.8 -0.8,0.8l-9.1,0c-0.5,0 -0.8,-0.3 -0.8,-0.8Zm3.4,10.6c0,-0.4 0.3,-0.8 0.8,-0.8l9.1,0c0.4,0 0.8,0.3 0.8,0.8c0,0.4 -0.3,0.8 -0.8,0.8l-9.1,0c-0.4,-0.1 -0.8,-0.4 -0.8,-0.8Zm15.6,4.7l-9.1,0c-0.4,0 -0.8,-0.3 -0.8,-0.8c0,-0.5 0.3,-0.8 0.8,-0.8l9.1,0c0.4,0 0.8,0.3 0.8,0.8c0,0.5 -0.4,0.8 -0.8,0.8Z" style="fill:#2980b9;fill-rule:nonzero;"/><path d="M29.2,0l-27.4,0c-1,0 -1.8,0.8 -1.8,1.8l0,4.9l31,0l0,-4.9c0,-1 -0.8,-1.8 -1.8,-1.8Zm-24.2,4.2c0,0.4 -0.3,0.8 -0.8,0.8c-0.4,-0.1 -0.7,-0.4 -0.7,-0.8l0,-1.7c0,-0.4 0.3,-0.8 0.8,-0.8c0.4,0 0.8,0.3 0.8,0.8l0,1.7l-0.1,0Zm3.6,0c0,0.4 -0.3,0.8 -0.8,0.8c-0.4,0 -0.8,-0.3 -0.8,-0.8l0,-1.7c0,-0.4 0.3,-0.8 0.8,-0.8c0.4,0 0.8,0.3 0.8,0.8l0,1.7Zm3.5,0c0,0.4 -0.3,0.8 -0.8,0.8c-0.4,0 -0.8,-0.3 -0.8,-0.8l0,-1.7c0,-0.4 0.3,-0.8 0.8,-0.8c0.4,0 0.8,0.3 0.8,0.8l0,1.7Z" style="fill:#2980b9;fill-rule:nonzero;"/></g></svg>