<?xml version="1.0" encoding="UTF-8" standalone="no"?><!DOCTYPE svg PUBLIC "-//W3C//DTD SVG 1.1//EN" "http://www.w3.org/Graphics/SVG/1.1/DTD/svg11.dtd"><svg width="100%" height="100%" viewBox="0 0 87 18" version="1.1" xmlns="http://www.w3.org/2000/svg" xmlns:xlink="http://www.w3.org/1999/xlink" xml:space="preserve" style="fill-rule:evenodd;clip-rule:evenodd;stroke-linejoin:round;stroke-miterlimit:1.41421;"><path d="M5.04,17.088l0,-1.248l-0.048,0c-0.32,0.448 -0.644,0.792 -0.972,1.032c-0.328,0.24 -0.788,0.36 -1.38,0.36c-0.288,0 -0.58,-0.044 -0.876,-0.132c-0.296,-0.088 -0.58,-0.252 -0.852,-0.492c-0.272,-0.224 -0.492,-0.548 -0.66,-0.972c-0.168,-0.424 -0.252,-0.972 -0.252,-1.644c0,-0.688 0.056,-1.292 0.168,-1.812c0.112,-0.52 0.32,-0.956 0.624,-1.308c0.288,-0.336 0.68,-0.588 1.176,-0.756c0.496,-0.168 1.128,-0.252 1.896,-0.252c0.08,0 0.168,0 0.264,0c0.096,0 0.184,0.008 0.264,0.024c0.08,0.016 0.176,0.024 0.288,0.024c0.112,0 0.232,0.008 0.36,0.024l0,-1.272c0,-0.416 -0.088,-0.76 -0.264,-1.032c-0.176,-0.272 -0.496,-0.408 -0.96,-0.408c-0.32,0 -0.612,0.104 -0.876,0.312c-0.264,0.208 -0.436,0.512 -0.516,0.912l-2.376,0c0.064,-1.088 0.432,-1.968 1.104,-2.64c0.32,-0.32 0.704,-0.572 1.152,-0.756c0.448,-0.184 0.952,-0.276 1.512,-0.276c0.512,0 0.992,0.08 1.44,0.24c0.448,0.16 0.84,0.4 1.176,0.72c0.32,0.32 0.576,0.72 0.768,1.2c0.192,0.48 0.288,1.04 0.288,1.68l0,8.472l-2.448,0Zm0,-5.232c-0.272,-0.048 -0.496,-0.072 -0.672,-0.072c-0.528,0 -0.98,0.124 -1.356,0.372c-0.376,0.248 -0.564,0.7 -0.564,1.356c0,0.464 0.112,0.84 0.336,1.128c0.224,0.288 0.536,0.432 0.936,0.432c0.416,0 0.74,-0.136 0.972,-0.408c0.232,-0.272 0.348,-0.656 0.348,-1.152l0,-1.656Z" style="fill:#36008d;fill-rule:nonzero;"/><path d="M12.888,17.088l0,-12.168l2.448,0l0,1.296c0.496,-0.448 0.984,-0.8 1.464,-1.056c0.48,-0.256 1.072,-0.384 1.776,-0.384l0,2.592c-0.24,-0.096 -0.488,-0.144 -0.744,-0.144c-0.256,0 -0.532,0.044 -0.828,0.132c-0.296,0.088 -0.564,0.236 -0.804,0.444c-0.256,0.208 -0.464,0.48 -0.624,0.816c-0.16,0.336 -0.24,0.752 -0.24,1.248l0,7.224l-2.448,0Z" style="fill:#36008d;fill-rule:nonzero;"/><path d="M27.648,17.088l0,-1.248l-0.048,0c-0.32,0.448 -0.644,0.792 -0.972,1.032c-0.328,0.24 -0.788,0.36 -1.38,0.36c-0.288,0 -0.58,-0.044 -0.876,-0.132c-0.296,-0.088 -0.58,-0.252 -0.852,-0.492c-0.272,-0.224 -0.492,-0.548 -0.66,-0.972c-0.168,-0.424 -0.252,-0.972 -0.252,-1.644c0,-0.688 0.056,-1.292 0.168,-1.812c0.112,-0.52 0.32,-0.956 0.624,-1.308c0.288,-0.336 0.68,-0.588 1.176,-0.756c0.496,-0.168 1.128,-0.252 1.896,-0.252c0.08,0 0.168,0 0.264,0c0.096,0 0.184,0.008 0.264,0.024c0.08,0.016 0.176,0.024 0.288,0.024c0.112,0 0.232,0.008 0.36,0.024l0,-1.272c0,-0.416 -0.088,-0.76 -0.264,-1.032c-0.176,-0.272 -0.496,-0.408 -0.96,-0.408c-0.32,0 -0.612,0.104 -0.876,0.312c-0.264,0.208 -0.436,0.512 -0.516,0.912l-2.376,0c0.064,-1.088 0.432,-1.968 1.104,-2.64c0.32,-0.32 0.704,-0.572 1.152,-0.756c0.448,-0.184 0.952,-0.276 1.512,-0.276c0.512,0 0.992,0.08 1.44,0.24c0.448,0.16 0.84,0.4 1.176,0.72c0.32,0.32 0.576,0.72 0.768,1.2c0.192,0.48 0.288,1.04 0.288,1.68l0,8.472l-2.448,0Zm0,-5.232c-0.272,-0.048 -0.496,-0.072 -0.672,-0.072c-0.528,0 -0.98,0.124 -1.356,0.372c-0.376,0.248 -0.564,0.7 -0.564,1.356c0,0.464 0.112,0.84 0.336,1.128c0.224,0.288 0.536,0.432 0.936,0.432c0.416,0 0.74,-0.136 0.972,-0.408c0.232,-0.272 0.348,-0.656 0.348,-1.152l0,-1.656Z" style="fill:#36008d;fill-rule:nonzero;"/><path d="M38.088,13.584c0,0.384 0.108,0.68 0.324,0.888c0.216,0.208 0.508,0.312 0.876,0.312c0.464,0 0.772,-0.136 0.924,-0.408c0.152,-0.272 0.244,-0.544 0.276,-0.816l2.448,0c0,1.072 -0.328,1.936 -0.984,2.592c-0.32,0.336 -0.704,0.6 -1.152,0.792c-0.448,0.192 -0.952,0.288 -1.512,0.288c-0.768,0 -1.42,-0.16 -1.956,-0.48c-0.536,-0.32 -0.948,-0.744 -1.236,-1.272c-0.176,-0.32 -0.296,-0.688 -0.36,-1.104c-0.064,-0.416 -0.096,-0.872 -0.096,-1.368l0,-4.008c0,-0.496 0.032,-0.952 0.096,-1.368c0.064,-0.416 0.184,-0.784 0.36,-1.104c0.288,-0.528 0.7,-0.952 1.236,-1.272c0.536,-0.32 1.188,-0.48 1.956,-0.48c0.56,0 1.068,0.096 1.524,0.288c0.456,0.192 0.844,0.456 1.164,0.792c0.64,0.72 0.96,1.656 0.96,2.808l-2.448,0c0,-0.496 -0.108,-0.86 -0.324,-1.092c-0.216,-0.232 -0.508,-0.348 -0.876,-0.348c-0.368,0 -0.66,0.116 -0.876,0.348c-0.216,0.232 -0.324,0.58 -0.324,1.044l0,4.968Z" style="fill:#36008d;fill-rule:nonzero;"/><path d="M47.76,9c0,-0.496 0.032,-0.952 0.096,-1.368c0.064,-0.416 0.184,-0.784 0.36,-1.104c0.288,-0.528 0.7,-0.952 1.236,-1.272c0.536,-0.32 1.188,-0.48 1.956,-0.48c0.768,0 1.42,0.16 1.956,0.48c0.536,0.32 0.948,0.744 1.236,1.272c0.176,0.32 0.296,0.688 0.36,1.104c0.064,0.416 0.096,0.872 0.096,1.368l0,4.008c0,0.496 -0.032,0.952 -0.096,1.368c-0.064,0.416 -0.184,0.784 -0.36,1.104c-0.288,0.528 -0.7,0.952 -1.236,1.272c-0.536,0.32 -1.188,0.48 -1.956,0.48c-0.768,0 -1.42,-0.16 -1.956,-0.48c-0.536,-0.32 -0.948,-0.744 -1.236,-1.272c-0.176,-0.32 -0.296,-0.688 -0.36,-1.104c-0.064,-0.416 -0.096,-0.872 -0.096,-1.368l0,-4.008Zm2.448,4.392c0,0.464 0.108,0.812 0.324,1.044c0.216,0.232 0.508,0.348 0.876,0.348c0.368,0 0.66,-0.116 0.876,-0.348c0.216,-0.232 0.324,-0.58 0.324,-1.044l0,-4.776c0,-0.464 -0.108,-0.812 -0.324,-1.044c-0.216,-0.232 -0.508,-0.348 -0.876,-0.348c-0.368,0 -0.66,0.116 -0.876,0.348c-0.216,0.232 -0.324,0.58 -0.324,1.044l0,4.776Z" style="fill:#36008d;fill-rule:nonzero;"/><path d="M60.312,0l2.448,0l0,13.656c0,0.464 0.084,0.78 0.252,0.948c0.168,0.168 0.484,0.276 0.948,0.324l0,2.304c-0.56,0 -1.064,-0.044 -1.512,-0.132c-0.448,-0.088 -0.832,-0.26 -1.152,-0.516c-0.32,-0.24 -0.564,-0.58 -0.732,-1.02c-0.168,-0.44 -0.252,-1.02 -0.252,-1.74l0,-13.824Z" style="fill:#36008d;fill-rule:nonzero;"/><path d="M68.304,9c0,-0.496 0.032,-0.952 0.096,-1.368c0.064,-0.416 0.184,-0.784 0.36,-1.104c0.288,-0.528 0.7,-0.952 1.236,-1.272c0.536,-0.32 1.188,-0.48 1.956,-0.48c0.768,0 1.42,0.16 1.956,0.48c0.536,0.32 0.948,0.744 1.236,1.272c0.176,0.32 0.296,0.688 0.36,1.104c0.064,0.416 0.096,0.872 0.096,1.368l0,4.008c0,0.496 -0.032,0.952 -0.096,1.368c-0.064,0.416 -0.184,0.784 -0.36,1.104c-0.288,0.528 -0.7,0.952 -1.236,1.272c-0.536,0.32 -1.188,0.48 -1.956,0.48c-0.768,0 -1.42,-0.16 -1.956,-0.48c-0.536,-0.32 -0.948,-0.744 -1.236,-1.272c-0.176,-0.32 -0.296,-0.688 -0.36,-1.104c-0.064,-0.416 -0.096,-0.872 -0.096,-1.368l0,-4.008Zm2.448,4.392c0,0.464 0.108,0.812 0.324,1.044c0.216,0.232 0.508,0.348 0.876,0.348c0.368,0 0.66,-0.116 0.876,-0.348c0.216,-0.232 0.324,-0.58 0.324,-1.044l0,-4.776c0,-0.464 -0.108,-0.812 -0.324,-1.044c-0.216,-0.232 -0.508,-0.348 -0.876,-0.348c-0.368,0 -0.66,0.116 -0.876,0.348c-0.216,0.232 -0.324,0.58 -0.324,1.044l0,4.776Z" style="fill:#36008d;fill-rule:nonzero;"/><path d="M81,17.088l0,-12.168l2.448,0l0,1.296c0.496,-0.448 0.984,-0.8 1.464,-1.056c0.48,-0.256 1.072,-0.384 1.776,-0.384l0,2.592c-0.24,-0.096 -0.488,-0.144 -0.744,-0.144c-0.256,0 -0.532,0.044 -0.828,0.132c-0.296,0.088 -0.564,0.236 -0.804,0.444c-0.256,0.208 -0.464,0.48 -0.624,0.816c-0.16,0.336 -0.24,0.752 -0.24,1.248l0,7.224l-2.448,0Z" style="fill:#36008d;fill-rule:nonzero;"/></svg>