<?xml version="1.0" encoding="UTF-8" standalone="no"?><!DOCTYPE svg PUBLIC "-//W3C//DTD SVG 1.1//EN" "http://www.w3.org/Graphics/SVG/1.1/DTD/svg11.dtd"><svg width="100%" height="100%" viewBox="0 0 81 88" version="1.1" xmlns="http://www.w3.org/2000/svg" xmlns:xlink="http://www.w3.org/1999/xlink" xml:space="preserve" style="fill-rule:evenodd;clip-rule:evenodd;stroke-miterlimit:10;"><g id="logo"><path d="M43.174,41.932c-0.019,0.01 -0.042,0.013 -0.064,0.019c0.006,-0.019 0.016,-0.038 0.022,-0.057c0.013,0.012 0.029,0.025 0.042,0.038Z" style="fill:none;stroke:#000;stroke-width:0.2px;"/><path d="M43.362,42.119c-0.013,0.027 -0.027,0.059 -0.045,0.086c-0.647,1.281 -1.497,2.446 -2.5,3.448l-0.004,0.005c-2.352,2.356 -5.576,3.844 -9.142,3.952l-0.031,0c-0.126,0 -0.248,0.005 -0.378,0.005c-1.183,0 -2.329,-0.149 -3.426,-0.441c-0.009,0 -0.018,0 -0.027,-0.005c0,-0.027 0.004,-0.054 0.004,-0.081c0,-0.022 0,-0.04 0.005,-0.062c0.013,-0.036 0.027,-0.072 0.04,-0.108c0.005,0 0.005,0 0.009,0.004c-0.242,-1.083 -0.373,-2.212 -0.373,-3.368c0,-2.85 0.778,-5.517 2.127,-7.801c2.459,2.828 6.088,4.622 10.135,4.622c1.155,0 2.284,-0.148 3.354,-0.422c0.005,-0.018 0.014,-0.041 0.023,-0.059l0.04,0.041c0.045,0.036 0.085,0.081 0.13,0.126c0.019,0.018 0.041,0.04 0.059,0.058" style="fill-rule:nonzero;"/><path d="M43.951,31.467c-0.904,-0.184 -1.844,-0.283 -2.806,-0.283c-1.133,0 -2.23,0.135 -3.282,0.391c-0.045,0.009 -0.09,0.018 -0.131,0.031c-0.337,0.086 -0.665,0.18 -0.989,0.288c-0.076,0.027 -0.153,0.05 -0.225,0.077c-0.296,0.103 -0.589,0.22 -0.876,0.35c-1.111,0.477 -2.15,1.097 -3.089,1.835c-0.239,0.211 -0.468,0.431 -0.688,0.661c-0.36,0.369 -0.706,0.76 -1.021,1.164c-0.427,0.526 -0.809,1.084 -1.156,1.664c-0.022,0.036 -0.045,0.072 -0.067,0.108c-1.349,2.284 -2.127,4.95 -2.127,7.801c0,1.156 0.131,2.285 0.373,3.368c-0.004,-0.004 -0.004,-0.004 -0.009,-0.004c-0.013,0.036 -0.027,0.072 -0.04,0.108c-0.005,0.022 -0.005,0.04 -0.005,0.062c0,0.027 -0.004,0.054 -0.004,0.081c-5.782,-1.524 -10.05,-6.794 -10.05,-13.057c0,-1.466 0.234,-2.873 0.666,-4.195c1.763,-5.405 6.843,-9.312 12.837,-9.312c5.337,0 9.946,3.089 12.14,7.581c0.203,0.413 0.387,0.84 0.549,1.281" style="fill:#fef1cf;fill-rule:nonzero;"/><path d="M34.283,34.959c0,0 -0.134,0.048 -0.369,0.131c-0.242,0.079 -0.593,0.177 -1.02,0.24c-0.431,0.063 -0.92,0.091 -1.466,0.042c-0.482,-0.043 -1.09,-0.165 -1.589,-0.358c-1.049,-0.379 -1.918,-1.076 -2.431,-1.684c-0.265,-0.299 -0.442,-0.581 -0.566,-0.773c-0.113,-0.2 -0.178,-0.314 -0.178,-0.314c0,0 0.082,0.102 0.225,0.28c0.153,0.169 0.368,0.413 0.667,0.657c0.584,0.502 1.496,1.005 2.468,1.186c0.503,0.096 0.938,0.117 1.434,0.084c0.432,-0.032 0.855,-0.123 1.187,-0.231c0.337,-0.108 0.602,-0.231 0.783,-0.324c0.182,-0.101 0.286,-0.159 0.286,-0.159l0.569,1.223Z" style="fill-rule:nonzero;"/><path d="M32.27,37.071c0,0 -0.144,-0.001 -0.396,-0.002c-0.127,-0.001 -0.28,-0.002 -0.456,-0.003c-0.064,-0.001 -0.13,-0.002 -0.199,-0.003l-0.143,-0.016c-0.098,-0.011 -0.201,-0.022 -0.308,-0.034c-0.473,-0.071 -1.019,-0.176 -1.554,-0.38c-0.541,-0.196 -1.092,-0.464 -1.595,-0.8c-1.01,-0.673 -1.795,-1.595 -2.23,-2.355c-0.222,-0.379 -0.372,-0.711 -0.466,-0.946c-0.09,-0.236 -0.141,-0.371 -0.141,-0.371c0,0 0.07,0.126 0.193,0.346c0.126,0.217 0.321,0.518 0.587,0.851c0.526,0.67 1.395,1.42 2.391,1.889c0.497,0.235 1.02,0.398 1.514,0.5c0.499,0.109 0.959,0.124 1.344,0.128c0.108,-0.004 0.212,-0.007 0.31,-0.011l0.144,-0.005l0.017,0l0.009,-0.001l0.002,0c-0.126,0.002 -0.034,0.001 -0.061,0.001l0.004,-0.001l0.034,-0.004l0.066,-0.01c0.174,-0.024 0.326,-0.046 0.451,-0.063c0.25,-0.036 0.392,-0.056 0.392,-0.056l0.091,1.346Z" style="fill-rule:nonzero;"/><path d="M30.645,39.432c0,0 -0.187,-0.021 -0.515,-0.058c-0.3,-0.028 -0.876,-0.126 -1.437,-0.291c-0.291,-0.077 -0.599,-0.18 -0.916,-0.314c-0.324,-0.113 -0.64,-0.294 -0.974,-0.453c-0.317,-0.195 -0.656,-0.374 -0.963,-0.615c-0.321,-0.217 -0.613,-0.481 -0.907,-0.738c-0.275,-0.279 -0.559,-0.546 -0.793,-0.851c-0.252,-0.287 -0.457,-0.603 -0.662,-0.9c-0.181,-0.314 -0.372,-0.606 -0.504,-0.909c-0.143,-0.297 -0.269,-0.58 -0.358,-0.853c-0.199,-0.536 -0.309,-1 -0.366,-1.325c-0.058,-0.325 -0.091,-0.51 -0.091,-0.51c0,0 0.054,0.18 0.147,0.496c0.092,0.314 0.252,0.758 0.504,1.256c0.115,0.254 0.268,0.515 0.438,0.784c0.158,0.276 0.374,0.535 0.576,0.812c0.228,0.26 0.452,0.535 0.72,0.777c0.248,0.259 0.543,0.478 0.822,0.706c0.3,0.206 0.592,0.417 0.907,0.582c0.3,0.187 0.628,0.313 0.928,0.456c0.318,0.108 0.613,0.239 0.912,0.305c0.292,0.087 0.572,0.147 0.835,0.185c0.536,0.087 0.899,0.114 1.256,0.111c0.329,0 0.518,0 0.518,0l-0.077,1.347Z" style="fill-rule:nonzero;"/><path d="M51.78,42.561c0,5.66 -4.357,11.097 -8.92,11.097c1.959,-1.786 2.921,-8.942 0.5,-11.54c-0.061,-0.064 -0.122,-0.128 -0.186,-0.186c-0.012,-0.012 -0.029,-0.025 -0.041,-0.038c-0.007,0.019 -0.016,0.038 -0.023,0.058c-1.071,0.276 -2.196,0.423 -3.354,0.423c-4.046,0 -7.676,-1.793 -10.135,-4.624c0.792,-1.343 1.783,-2.555 2.931,-3.594l0.003,-0.003c2.366,-1.86 5.345,-2.969 8.59,-2.969c0.962,0 1.901,0.096 2.805,0.282c2.459,0.507 4.681,1.658 6.48,3.27c0.189,0.533 0.363,1.075 0.513,1.626c0.356,1.286 0.603,2.617 0.731,3.979c0.071,0.731 0.106,1.472 0.106,2.219" style="fill:#3f2e03;fill-rule:nonzero;"/><path d="M34.4,30.637c0,1.524 -1.235,2.759 -2.759,2.759c-1.524,0 -2.76,-1.235 -2.76,-2.759c0,-1.524 1.236,-2.759 2.76,-2.759c1.524,0 2.759,1.235 2.759,2.759" style="fill:#fff;fill-rule:nonzero;"/><path d="M34.4,30.637c0,1.524 -1.235,2.759 -2.759,2.759c-1.524,0 -2.76,-1.235 -2.76,-2.759c0,-1.524 1.236,-2.759 2.76,-2.759c1.524,0 2.759,1.235 2.759,2.759Z" style="fill:none;stroke:#3f2e03;stroke-width:0.55px;"/><path d="M33.473,30.637c0,1.012 -0.82,1.831 -1.832,1.831c-1.011,0 -1.831,-0.819 -1.831,-1.831c0,-1.011 0.82,-1.831 1.831,-1.831c1.012,0 1.832,0.82 1.832,1.831" style="fill:#2f2302;fill-rule:nonzero;"/><path d="M41.991,29.761c0,0.528 -0.428,0.956 -0.955,0.956c-0.528,0 -0.956,-0.428 -0.956,-0.956c0,-0.528 0.428,-0.955 0.956,-0.955c0.527,0 0.955,0.427 0.955,0.955" style="fill:#2f2302;fill-rule:nonzero;"/><path d="M34.293,57.205c-1.844,0.805 -3.885,1.25 -6.025,1.25c-8.337,0 -15.095,-6.754 -15.095,-15.09c0,-4.577 2.037,-8.678 5.252,-11.448c-0.431,1.322 -0.665,2.729 -0.665,4.195c0,6.264 4.267,11.533 10.049,13.058c0.009,0.004 0.018,0.004 0.027,0.004c1.052,3.431 3.39,6.295 6.457,8.031" style="fill:#2f2302;fill-rule:nonzero;"/><path d="M59.616,76.936c-3.288,1.222 -6.814,1.962 -10.485,2.135c-0.001,0.001 -0.002,0.002 -0.003,0.003c-0.286,0.011 -0.572,0.022 -0.858,0.029c-2.979,2.091 -6.272,3.76 -9.799,4.924c0.438,0.077 0.876,0.149 1.319,0.209c1.562,0.214 3.155,0.328 4.775,0.328c1.398,0 2.78,-0.084 4.137,-0.247c12.7,-1.494 23.316,-9.802 28.097,-21.168c-4.063,6.268 -10.078,11.151 -17.183,13.787" style="fill:#021295;fill-rule:nonzero;"/><path d="M48.285,79.093c-0.005,0.003 -0.01,0.007 -0.014,0.01c0.286,-0.007 0.571,-0.017 0.857,-0.029c0.001,0 0.002,-0.001 0.003,-0.002c-0.001,0 -0.002,0 -0.003,0c-0.28,0.014 -0.562,0.014 -0.843,0.021" style="fill:#3b4fee;fill-rule:nonzero;"/><path d="M26.664,85.927c-0.292,0 -0.579,-0.015 -0.87,-0.022c1.361,0.368 2.751,0.666 4.172,0.869c1.627,0.232 3.289,0.356 4.98,0.356c2.133,0 4.223,-0.193 6.253,-0.558c-1.607,-0.291 -3.173,-0.696 -4.696,-1.198c-0.417,-0.138 -0.826,-0.293 -1.236,-0.446c-2.764,0.646 -5.642,0.999 -8.603,0.999" style="fill:#021295;fill-rule:nonzero;"/><path d="M55.243,18.103c-0.023,-0.004 -0.041,-0.009 -0.063,-0.013c2.182,3.465 3.666,7.412 4.259,11.644c0.021,0.037 0.043,0.074 0.064,0.111c-0.588,-4.267 -2.072,-8.246 -4.26,-11.742" style="fill:#3b4fee;fill-rule:nonzero;"/><path d="M62.069,61.119c-0.04,0.111 -0.084,0.22 -0.125,0.331c0.195,-0.196 0.387,-0.392 0.574,-0.591c0.18,-0.189 0.355,-0.378 0.535,-0.572c0.22,-0.247 0.44,-0.494 0.656,-0.746c0.054,-0.153 0.108,-0.306 0.162,-0.458c-0.575,0.701 -1.177,1.38 -1.802,2.036" style="fill:#3b4fee;fill-rule:nonzero;"/><path d="M64.322,48.269c0,4.513 -0.796,8.84 -2.252,12.85c0.625,-0.656 1.227,-1.335 1.802,-2.036c-0.055,0.153 -0.108,0.306 -0.163,0.458c2.564,-2.981 4.632,-6.393 6.079,-10.121c1.521,-3.921 2.353,-8.179 2.353,-12.63c0,-1.776 -0.135,-3.516 -0.387,-5.221c-0.009,-0.072 -0.018,-0.144 -0.031,-0.211c-0.958,-7.19 -4.025,-13.714 -8.561,-18.925c0,-0.005 0,-0.005 -0.005,-0.005c-6.628,-7.617 -16.394,-12.428 -27.284,-12.428c-6.502,0 -12.604,1.713 -17.873,4.721c-4.785,2.716 -8.885,6.498 -11.988,11.026c2.136,-2.779 4.744,-5.176 7.707,-7.064c4.645,-2.963 10.166,-4.681 16.093,-4.681c5.355,0 10.382,1.403 14.735,3.867c4.361,2.464 8.044,5.994 10.697,10.234c2.188,3.495 3.671,7.474 4.26,11.742c3.063,5.447 4.818,11.729 4.818,18.424" style="fill:#021295;fill-rule:nonzero;"/><path d="M60.702,64.388c-2.484,5.236 -6.143,9.802 -10.634,13.371c0.299,-0.036 0.598,-0.072 0.895,-0.115c16.933,-2.496 29.932,-17.087 29.932,-34.713c0,-6.038 -1.528,-11.722 -4.213,-16.686c0.481,2.37 0.733,4.825 0.733,7.334c0,1.218 -0.058,2.419 -0.175,3.606c-0.508,5.193 -2.096,10.072 -4.542,14.402c-0.89,1.632 -1.906,3.183 -3.039,4.645c-2.149,2.779 -4.712,5.229 -7.595,7.252c-0.359,0.252 -0.728,0.5 -1.097,0.738c-0.087,0.057 -0.177,0.11 -0.265,0.166" style="fill:#021295;fill-rule:nonzero;"/><path d="M47.451,79.113c-4.832,0 -9.433,-0.987 -13.619,-2.76l-0.001,0c4.186,1.772 8.786,2.761 13.619,2.761c0.274,0 0.548,-0.004 0.82,-0.011c0.005,-0.004 0.01,-0.007 0.015,-0.011c-0.278,0.007 -0.555,0.021 -0.834,0.021" style="fill:#3b4fee;fill-rule:nonzero;"/><path d="M56.7,46.961c-0.004,0.108 -0.009,0.22 -0.018,0.328c1.987,-4.011 3.107,-8.525 3.107,-13.305c0,-1.405 -0.099,-2.786 -0.285,-4.139c-0.021,-0.037 -0.043,-0.074 -0.064,-0.111c0.19,1.358 0.291,2.745 0.291,4.156c0,4.694 -1.093,9.128 -3.031,13.071" style="fill:#3b4fee;fill-rule:nonzero;"/><path d="M55.544,66.533c0.544,-0.337 1.075,-0.688 1.601,-1.052c0.216,-0.148 0.431,-0.306 0.643,-0.459c0.022,-0.018 0.049,-0.036 0.076,-0.058c0.238,-0.176 0.477,-0.355 0.711,-0.535c0.233,-0.18 0.463,-0.365 0.692,-0.553c0.477,-0.387 0.944,-0.792 1.403,-1.205c0.414,-0.378 0.814,-0.76 1.209,-1.151c0.014,-0.018 0.032,-0.036 0.045,-0.05c0.007,-0.007 0.013,-0.014 0.02,-0.02c0.041,-0.111 0.085,-0.22 0.125,-0.331c-1.952,2.049 -4.141,3.871 -6.525,5.414" style="fill:#3b4fee;fill-rule:nonzero;"/><path d="M28.488,19.626c0.088,0.013 0.176,0.027 0.263,0.041c0.249,0.041 0.497,0.085 0.743,0.133c0.066,0.012 0.133,0.024 0.2,0.038c0.633,0.127 1.257,0.276 1.872,0.448c0.059,0.017 0.118,0.034 0.177,0.051c0.246,0.071 0.49,0.144 0.733,0.222c0.075,0.024 0.151,0.048 0.227,0.073c0.238,0.079 0.476,0.161 0.711,0.246c0.061,0.022 0.123,0.043 0.184,0.066c0.59,0.218 1.17,0.457 1.74,0.716c0.067,0.03 0.133,0.062 0.199,0.093c0.214,0.099 0.426,0.201 0.637,0.306c0.083,0.041 0.165,0.083 0.247,0.125c0.203,0.104 0.404,0.21 0.604,0.32c0.073,0.039 0.146,0.078 0.218,0.118c0.534,0.298 1.056,0.613 1.566,0.946c0.075,0.049 0.149,0.1 0.224,0.15c0.18,0.12 0.358,0.242 0.535,0.366c0.083,0.059 0.166,0.118 0.249,0.177c0.176,0.128 0.351,0.257 0.524,0.389c0.07,0.053 0.139,0.105 0.208,0.159c1.326,1.028 2.55,2.181 3.654,3.441c0.029,0.033 0.056,0.066 0.084,0.098c0.152,0.175 0.302,0.351 0.449,0.529c0.056,0.069 0.111,0.138 0.167,0.207c0.119,0.147 0.236,0.295 0.351,0.445c0.065,0.083 0.128,0.166 0.191,0.25c0.108,0.144 0.214,0.288 0.319,0.434c0.061,0.085 0.122,0.169 0.182,0.255c0.111,0.158 0.22,0.318 0.328,0.478c0.048,0.072 0.097,0.143 0.144,0.215c0.139,0.213 0.275,0.427 0.408,0.644c0.013,0.02 0.026,0.04 0.038,0.06c0.154,0.252 0.306,0.507 0.452,0.765c1.134,0.563 2.182,1.271 3.114,2.107c-0.411,-1.151 -0.911,-2.26 -1.488,-3.318c-3.116,-5.692 -8.542,-9.94 -15.018,-11.476c-1.155,-0.276 -2.344,-0.462 -3.562,-0.555c-0.603,-0.051 -1.213,-0.073 -1.828,-0.073c-0.497,0 -0.991,0.016 -1.478,0.048c-0.168,0.01 -0.335,0.024 -0.502,0.038c0.325,0.025 0.647,0.058 0.968,0.095c0.079,0.009 0.159,0.02 0.238,0.03c0.244,0.03 0.486,0.063 0.728,0.1" style="fill:#44af3d;fill-rule:nonzero;"/><path d="M23.784,77.714l0.002,0.002l0.004,0c0,0 -0.002,-0.001 -0.002,-0.002c-0.001,0 -0.003,0 -0.004,0" style="fill:#44af3d;fill-rule:nonzero;"/><path d="M24.513,77.724c-0.243,0 -0.484,-0.004 -0.726,-0.009c0.001,0 0.002,0.001 0.002,0.001c0.242,0.005 0.484,0.009 0.725,0.009c3.238,0 6.367,-0.481 9.317,-1.371c-2.95,0.89 -6.078,1.37 -9.318,1.37" style="fill:#44af3d;fill-rule:nonzero;"/><path d="M6.144,71.978c4.976,3.455 10.972,5.549 17.444,5.733l-0.001,-0.001c-6.476,-0.184 -12.472,-2.278 -17.447,-5.738c0.001,0.002 0.003,0.004 0.004,0.006" style="fill:#44af3d;fill-rule:nonzero;"/><path d="M22.83,76.984c0.314,0.251 0.636,0.488 0.954,0.73c0.001,0 0.003,0 0.004,0c-0.323,-0.239 -0.644,-0.48 -0.958,-0.73" style="fill:#44af3d;fill-rule:nonzero;"/><path d="M51.214,54.699c-0.076,0.076 -0.153,0.153 -0.234,0.234c-0.081,0.09 -0.171,0.166 -0.252,0.247c-0.845,0.8 -1.789,1.497 -2.81,2.068c-0.121,0.248 -0.252,0.495 -0.387,0.738c-0.018,0.036 -0.036,0.072 -0.058,0.108c-0.108,0.198 -0.225,0.4 -0.337,0.593c-0.072,0.117 -0.139,0.234 -0.212,0.351c-0.009,0.018 -0.018,0.036 -0.031,0.049c-0.099,0.167 -0.202,0.333 -0.306,0.495c-0.036,0.058 -0.072,0.117 -0.112,0.175c-0.023,0.036 -0.041,0.068 -0.068,0.099c-0.229,0.36 -0.472,0.711 -0.724,1.053c-0.067,0.099 -0.139,0.188 -0.211,0.283c-0.189,0.252 -0.382,0.503 -0.589,0.751c-0.117,0.148 -0.238,0.296 -0.36,0.44c-0.139,0.171 -0.287,0.337 -0.44,0.504c-0.104,0.117 -0.211,0.238 -0.32,0.355c-0.107,0.122 -0.22,0.238 -0.337,0.36c-0.44,0.463 -0.904,0.913 -1.38,1.34c-0.072,0.067 -0.144,0.13 -0.216,0.193c-0.166,0.153 -0.342,0.301 -0.513,0.445c-0.197,0.167 -0.4,0.333 -0.607,0.495c-0.045,0.036 -0.094,0.072 -0.139,0.108c-0.45,0.351 -0.913,0.688 -1.385,1.007c-0.247,0.171 -0.494,0.333 -0.746,0.49c-0.189,0.117 -0.383,0.238 -0.58,0.351c-0.126,0.076 -0.248,0.148 -0.373,0.216c-0.032,0.022 -0.068,0.045 -0.104,0.058c-0.162,0.095 -0.324,0.184 -0.49,0.274c-0.261,0.144 -0.526,0.279 -0.796,0.414c-0.539,0.265 -1.084,0.513 -1.641,0.742c-0.018,0.004 -0.032,0.009 -0.045,0.018c-0.544,0.22 -1.097,0.423 -1.655,0.611c-0.288,0.095 -0.58,0.189 -0.872,0.27c-0.585,0.176 -1.178,0.328 -1.776,0.454c-0.301,0.068 -0.603,0.126 -0.908,0.18c-0.014,0 -0.027,0.005 -0.041,0.009c-0.288,0.05 -0.575,0.099 -0.863,0.14c-0.014,0 -0.032,0.004 -0.045,0.004c-0.113,0.018 -0.22,0.032 -0.333,0.045l-0.009,0c-0.207,0.027 -0.418,0.054 -0.625,0.077c-0.229,0.027 -0.468,0.049 -0.701,0.062c-0.072,0.005 -0.149,0.014 -0.225,0.018c-0.234,0.018 -0.468,0.032 -0.702,0.041c-0.063,0.004 -0.121,0.004 -0.184,0.004c-0.315,0.018 -0.638,0.023 -0.958,0.023c-0.085,0 -0.175,0 -0.261,-0.005c-0.606,-0.008 -1.205,-0.031 -1.803,-0.081c-0.17,-0.009 -0.337,-0.026 -0.508,-0.044c-0.17,-0.014 -0.337,-0.032 -0.508,-0.054c-0.337,-0.036 -0.67,-0.081 -1.002,-0.135c-0.333,-0.05 -0.661,-0.108 -0.99,-0.176l-0.004,0c-0.324,-0.063 -0.652,-0.135 -0.976,-0.211c-0.162,-0.041 -0.324,-0.081 -0.481,-0.121c-0.319,-0.077 -0.638,-0.167 -0.958,-0.266c-0.314,-0.09 -0.634,-0.193 -0.944,-0.301c-0.153,-0.054 -0.31,-0.108 -0.463,-0.162c-0.202,-0.072 -0.4,-0.148 -0.598,-0.225c-0.198,-0.076 -0.396,-0.157 -0.594,-0.242c-0.094,-0.036 -0.193,-0.081 -0.287,-0.122c-0.414,-0.175 -0.819,-0.364 -1.223,-0.566c-0.221,-0.108 -0.437,-0.221 -0.648,-0.333c-0.216,-0.113 -0.427,-0.23 -0.643,-0.351l-0.418,-0.243c-0.139,-0.081 -0.279,-0.162 -0.418,-0.251c-0.409,-0.252 -0.814,-0.518 -1.214,-0.796c-0.234,-0.162 -0.463,-0.324 -0.688,-0.495c-0.032,-0.027 -0.063,-0.049 -0.095,-0.072c-0.256,-0.193 -0.512,-0.391 -0.76,-0.598c-0.278,-0.225 -0.553,-0.459 -0.827,-0.697c-0.211,-0.184 -0.423,-0.373 -0.629,-0.571c-0.194,-0.184 -0.387,-0.369 -0.571,-0.562c-0.077,-0.076 -0.158,-0.153 -0.234,-0.234c-0.149,-0.153 -0.297,-0.31 -0.441,-0.467c-0.081,-0.086 -0.162,-0.176 -0.238,-0.261c-0.014,-0.009 -0.018,-0.014 -0.018,-0.023c-0.171,-0.18 -0.329,-0.364 -0.49,-0.553c-0.841,-0.98 -1.601,-2.023 -2.284,-3.116c-0.342,-0.548 -0.666,-1.11 -0.967,-1.686c-0.306,-0.575 -0.585,-1.16 -0.845,-1.758c-0.131,-0.301 -0.257,-0.603 -0.374,-0.908c0.189,2.387 0.621,4.707 1.268,6.933c0.472,1.641 1.066,3.229 1.767,4.762c0.846,1.848 1.848,3.611 2.99,5.274c0.003,0.002 0.005,0.003 0.007,0.004c-0.002,-0.002 -0.003,-0.003 -0.004,-0.005c4.975,3.46 10.971,5.554 17.446,5.737c-0.256,-0.243 -0.507,-0.48 -0.758,-0.727l0.002,0.001c0.314,0.25 0.635,0.491 0.957,0.731c0.242,0.005 0.483,0.009 0.726,0.009c3.24,0 6.368,-0.481 9.318,-1.37c-0.355,-0.149 -0.706,-0.306 -1.052,-0.468l-0.005,-0.005c-0.301,-0.139 -0.602,-0.283 -0.899,-0.431c-0.081,-0.036 -0.157,-0.077 -0.234,-0.117c-0.306,-0.153 -0.611,-0.315 -0.913,-0.476c-0.283,-0.158 -0.571,-0.315 -0.849,-0.482c-0.171,-0.094 -0.338,-0.197 -0.504,-0.301c-0.131,-0.072 -0.261,-0.153 -0.387,-0.234c-0.157,-0.099 -0.315,-0.193 -0.467,-0.297c-0.113,-0.072 -0.225,-0.143 -0.338,-0.22c-0.179,-0.117 -0.359,-0.238 -0.535,-0.36c2.141,1.295 4.425,2.37 6.83,3.188l0.005,0c0.216,-0.072 0.432,-0.143 0.643,-0.22c0.571,-0.198 1.133,-0.414 1.686,-0.643c0.184,-0.076 0.369,-0.153 0.553,-0.234c1.83,-0.796 3.57,-1.753 5.207,-2.864c0.31,-0.211 0.616,-0.427 0.922,-0.647l0.004,0c0.171,-0.131 0.342,-0.257 0.513,-0.387c0.157,-0.117 0.315,-0.239 0.467,-0.364c0.153,-0.122 0.306,-0.243 0.459,-0.369c0.157,-0.13 0.315,-0.261 0.468,-0.387c0.018,-0.018 0.04,-0.031 0.058,-0.054c0.126,-0.103 0.247,-0.211 0.373,-0.323c0.149,-0.131 0.297,-0.266 0.441,-0.396c0.724,-0.666 1.421,-1.363 2.082,-2.091c0.216,-0.238 0.431,-0.481 0.643,-0.728c0.085,-0.104 0.171,-0.207 0.256,-0.306c0.166,-0.194 0.324,-0.391 0.481,-0.589c0.607,-0.765 1.178,-1.551 1.718,-2.37c0.126,-0.193 0.252,-0.386 0.373,-0.584c0.166,-0.261 0.324,-0.526 0.481,-0.792c0.126,-0.211 0.247,-0.422 0.364,-0.638c0.162,-0.288 0.32,-0.58 0.468,-0.873c0.135,-0.26 0.265,-0.521 0.396,-0.786l0,-0.005c0.126,-0.265 0.251,-0.535 0.373,-0.805c0.121,-0.27 0.238,-0.544 0.355,-0.818c0.342,-0.823 0.652,-1.659 0.926,-2.518c0.095,-0.288 0.18,-0.571 0.261,-0.859c0.086,-0.288 0.166,-0.58 0.238,-0.872c0.077,-0.292 0.149,-0.585 0.216,-0.877c0.068,-0.283 0.131,-0.571 0.189,-0.863c0.005,-0.009 0.005,-0.018 0.005,-0.027c0.058,-0.302 0.116,-0.598 0.166,-0.9c0.049,-0.296 0.099,-0.593 0.144,-0.894l0,-0.014c0.081,-0.589 0.148,-1.187 0.202,-1.785c0.027,-0.324 0.05,-0.652 0.068,-0.98c0.009,-0.108 0.013,-0.22 0.018,-0.328c-1.408,2.868 -3.269,5.481 -5.486,7.738" style="fill:#44af3d;fill-rule:nonzero;"/><path d="M54.267,57.878c0.346,-0.823 0.652,-1.664 0.926,-2.518c-0.274,0.859 -0.584,1.695 -0.926,2.518" style="fill:#44af3d;fill-rule:nonzero;"/><path d="M56.412,50.054c0.086,-0.589 0.153,-1.187 0.202,-1.785c-0.054,0.598 -0.121,1.196 -0.202,1.785" style="fill:#44af3d;fill-rule:nonzero;"/><path d="M1.331,57.671c0.301,0.576 0.625,1.138 0.967,1.686c0.688,1.097 1.448,2.136 2.284,3.116c0.162,0.189 0.319,0.373 0.49,0.553c0,0.009 0.004,0.014 0.018,0.023c0.077,0.085 0.157,0.175 0.238,0.26c0.144,0.158 0.293,0.315 0.441,0.468c0.077,0.081 0.157,0.157 0.234,0.234c0.184,0.193 0.377,0.377 0.571,0.562c0.207,0.198 0.418,0.387 0.629,0.571c0.275,0.238 0.549,0.472 0.828,0.697c0.247,0.207 0.503,0.405 0.76,0.598c0.031,0.022 0.062,0.045 0.094,0.072c0.225,0.171 0.454,0.333 0.688,0.495c0.4,0.278 0.805,0.543 1.214,0.795c0.139,0.09 0.279,0.171 0.418,0.252l0.418,0.243c0.216,0.121 0.427,0.238 0.643,0.351c0.212,0.112 0.428,0.225 0.648,0.332c0.404,0.203 0.809,0.391 1.223,0.567c0.094,0.04 0.193,0.085 0.288,0.121c0.197,0.086 0.395,0.167 0.593,0.243c0.198,0.077 0.396,0.153 0.598,0.225c0.153,0.054 0.31,0.108 0.463,0.162c0.311,0.108 0.63,0.211 0.945,0.301c0.319,0.099 0.638,0.189 0.957,0.265c0.158,0.041 0.319,0.081 0.481,0.122c0.324,0.076 0.652,0.148 0.976,0.211l0.005,0c0.328,0.067 0.656,0.126 0.989,0.175c0.333,0.055 0.665,0.099 1.002,0.135c0.171,0.023 0.338,0.041 0.509,0.054c0.17,0.018 0.337,0.036 0.508,0.045c0.598,0.05 1.196,0.072 1.803,0.081l0.261,0c0.319,0 0.638,-0.004 0.957,-0.018c0.059,0 0.117,-0.004 0.18,-0.009c0.238,-0.009 0.472,-0.022 0.706,-0.036c0.076,-0.004 0.153,-0.013 0.225,-0.018c0.234,-0.018 0.468,-0.04 0.701,-0.063c0.207,-0.022 0.418,-0.049 0.625,-0.076c0.117,-0.014 0.23,-0.027 0.342,-0.045c0.014,0 0.032,-0.005 0.045,-0.005c0.292,-0.045 0.58,-0.089 0.863,-0.139c0.014,-0.004 0.027,-0.009 0.041,-0.009c0.306,-0.054 0.607,-0.117 0.908,-0.18c0.598,-0.13 1.192,-0.283 1.776,-0.454c0.292,-0.085 0.585,-0.175 0.872,-0.27c0.558,-0.188 1.111,-0.391 1.655,-0.611c0.014,-0.009 0.027,-0.014 0.045,-0.018c0.558,-0.229 1.102,-0.477 1.641,-0.742c0.27,-0.135 0.535,-0.27 0.796,-0.414c0.166,-0.09 0.329,-0.18 0.49,-0.274c0.036,-0.014 0.072,-0.036 0.104,-0.058c0.125,-0.068 0.247,-0.14 0.373,-0.216c0.198,-0.113 0.391,-0.234 0.58,-0.351c0.252,-0.157 0.499,-0.319 0.746,-0.49c0.472,-0.319 0.936,-0.657 1.385,-1.007c0.045,-0.036 0.095,-0.072 0.14,-0.108c0.206,-0.162 0.409,-0.328 0.607,-0.495c0.171,-0.144 0.346,-0.292 0.512,-0.445c0.072,-0.063 0.144,-0.126 0.216,-0.193c0.477,-0.428 0.94,-0.877 1.38,-1.34c0.117,-0.122 0.23,-0.239 0.338,-0.36c0.108,-0.117 0.215,-0.238 0.319,-0.355c0.153,-0.167 0.301,-0.333 0.441,-0.504c0.121,-0.144 0.242,-0.292 0.359,-0.441c0.207,-0.247 0.4,-0.499 0.589,-0.75c0.072,-0.095 0.144,-0.185 0.212,-0.284c0.251,-0.341 0.494,-0.692 0.724,-1.052c0.027,-0.031 0.044,-0.063 0.067,-0.099c0.041,-0.058 0.076,-0.117 0.112,-0.175c0.104,-0.162 0.207,-0.328 0.306,-0.495c0.014,-0.013 0.023,-0.031 0.032,-0.049c0.072,-0.117 0.139,-0.234 0.211,-0.351c0.112,-0.193 0.229,-0.396 0.337,-0.593c0.023,-0.036 0.041,-0.072 0.059,-0.108c0.135,-0.243 0.265,-0.49 0.386,-0.738c-2.005,1.12 -4.312,1.758 -6.771,1.758c-2.491,0 -4.834,-0.656 -6.853,-1.803c-1.843,0.805 -3.885,1.25 -6.025,1.25c-8.336,0 -15.094,-6.753 -15.094,-15.09c0,-4.577 2.036,-8.678 5.251,-11.448c1.763,-5.404 6.844,-9.312 12.838,-9.312c5.337,0 9.946,3.089 12.14,7.581c0.202,0.414 0.387,0.841 0.548,1.282c0.153,0.031 0.302,0.063 0.455,0.103c0.121,0.027 0.242,0.059 0.359,0.095c0.077,0.018 0.153,0.04 0.23,0.063c0.103,0.027 0.211,0.058 0.314,0.094c0.194,0.058 0.387,0.126 0.576,0.198c0.031,0.009 0.058,0.018 0.09,0.031c0.18,0.063 0.36,0.135 0.535,0.212c0.121,0.049 0.243,0.103 0.364,0.157c0.149,0.067 0.292,0.135 0.436,0.207c-0.145,-0.257 -0.294,-0.51 -0.447,-0.761c-0.012,-0.02 -0.025,-0.04 -0.038,-0.06c-0.133,-0.217 -0.269,-0.431 -0.408,-0.644c-0.047,-0.072 -0.096,-0.143 -0.144,-0.215c-0.108,-0.16 -0.217,-0.32 -0.328,-0.478c-0.06,-0.086 -0.121,-0.17 -0.182,-0.255c-0.105,-0.145 -0.211,-0.29 -0.319,-0.434c-0.063,-0.084 -0.126,-0.167 -0.19,-0.25c-0.116,-0.15 -0.233,-0.298 -0.352,-0.445c-0.055,-0.069 -0.111,-0.138 -0.167,-0.207c-0.147,-0.178 -0.297,-0.354 -0.449,-0.529c-0.028,-0.032 -0.055,-0.065 -0.084,-0.098c-0.384,-0.436 -0.782,-0.861 -1.195,-1.272c-0.184,-0.188 -0.373,-0.373 -0.566,-0.553c-0.382,-0.359 -0.778,-0.71 -1.183,-1.047c-0.233,-0.194 -0.47,-0.383 -0.709,-0.569c-0.069,-0.054 -0.139,-0.106 -0.209,-0.159c-0.173,-0.131 -0.348,-0.261 -0.524,-0.389c-0.083,-0.059 -0.166,-0.118 -0.249,-0.177c-0.177,-0.124 -0.355,-0.246 -0.535,-0.366c-0.075,-0.05 -0.149,-0.101 -0.224,-0.15c-0.509,-0.333 -1.032,-0.648 -1.566,-0.946c-0.072,-0.04 -0.145,-0.079 -0.218,-0.118c-0.2,-0.109 -0.401,-0.216 -0.604,-0.32c-0.082,-0.042 -0.164,-0.083 -0.247,-0.124c-0.21,-0.105 -0.423,-0.207 -0.637,-0.307c-0.066,-0.031 -0.132,-0.062 -0.199,-0.093c-0.569,-0.259 -1.15,-0.498 -1.74,-0.716c-0.061,-0.023 -0.122,-0.044 -0.184,-0.066c-0.235,-0.085 -0.472,-0.167 -0.711,-0.246c-0.076,-0.025 -0.152,-0.049 -0.227,-0.073c-0.243,-0.077 -0.487,-0.151 -0.733,-0.222c-0.059,-0.016 -0.117,-0.034 -0.177,-0.051c-0.615,-0.172 -1.239,-0.321 -1.872,-0.448c-0.066,-0.014 -0.133,-0.026 -0.2,-0.038c-0.246,-0.048 -0.494,-0.092 -0.742,-0.132c-0.088,-0.015 -0.176,-0.028 -0.264,-0.042c-0.242,-0.037 -0.484,-0.07 -0.728,-0.1c-0.079,-0.01 -0.158,-0.021 -0.238,-0.03c-0.321,-0.037 -0.642,-0.069 -0.966,-0.094c-1.583,0.135 -3.121,0.436 -4.6,0.859c-1.457,0.413 -3.022,0.944 -4.096,1.452c-0.234,0.117 -0.45,0.225 -0.63,0.337c-3.849,2.267 -7.221,5.248 -9.941,8.764c-1.214,1.569 -2.298,3.246 -3.233,5.013c-0.639,1.201 -1.21,2.442 -1.704,3.723c-0.239,0.612 -0.459,1.232 -0.661,1.857c-0.072,0.23 -0.144,0.459 -0.216,0.688c-0.958,3.193 -1.475,6.579 -1.475,10.086c0,0.548 0.014,1.092 0.036,1.641c0.018,0.396 0.045,0.791 0.076,1.183c0.117,0.305 0.243,0.607 0.374,0.908c0.261,0.598 0.544,1.182 0.845,1.758" style="fill:#fbb90d;fill-rule:nonzero;"/><path d="M29.694,19.838c-0.066,-0.013 -0.133,-0.025 -0.2,-0.038c0.067,0.013 0.134,0.025 0.2,0.038" style="fill:#fbb90d;fill-rule:nonzero;"/><path d="M33.598,20.944c-0.061,-0.023 -0.122,-0.044 -0.183,-0.066c0.061,0.022 0.122,0.043 0.183,0.066" style="fill:#fbb90d;fill-rule:nonzero;"/><path d="M32.703,20.633c-0.076,-0.025 -0.151,-0.049 -0.227,-0.073c0.076,0.024 0.151,0.048 0.227,0.073" style="fill:#fbb90d;fill-rule:nonzero;"/><path d="M31.743,20.338c-0.059,-0.017 -0.118,-0.035 -0.177,-0.051c0.059,0.016 0.118,0.034 0.177,0.051" style="fill:#fbb90d;fill-rule:nonzero;"/><path d="M44.288,28.348c-0.029,-0.032 -0.056,-0.065 -0.084,-0.098c0.028,0.033 0.056,0.066 0.084,0.098" style="fill:#fbb90d;fill-rule:nonzero;"/><path d="M28.752,19.668c-0.088,-0.014 -0.176,-0.028 -0.263,-0.041c0.087,0.013 0.175,0.027 0.263,0.041" style="fill:#fbb90d;fill-rule:nonzero;"/><path d="M44.903,29.084c-0.056,-0.069 -0.111,-0.138 -0.167,-0.206c0.056,0.068 0.112,0.137 0.167,0.206" style="fill:#fbb90d;fill-rule:nonzero;"/><path d="M27.522,19.496c0.08,0.009 0.159,0.02 0.239,0.03c-0.08,-0.01 -0.159,-0.021 -0.239,-0.03" style="fill:#fbb90d;fill-rule:nonzero;"/><path d="M45.445,29.78c-0.063,-0.084 -0.126,-0.167 -0.191,-0.25c0.064,0.083 0.128,0.166 0.191,0.25" style="fill:#fbb90d;fill-rule:nonzero;"/><path d="M39.033,23.718c-0.074,-0.05 -0.148,-0.1 -0.223,-0.149c0.075,0.049 0.149,0.099 0.223,0.149" style="fill:#fbb90d;fill-rule:nonzero;"/><path d="M46.418,31.162c-0.047,-0.072 -0.096,-0.143 -0.144,-0.215c0.048,0.072 0.097,0.143 0.144,0.215" style="fill:#fbb90d;fill-rule:nonzero;"/><path d="M45.946,30.468c-0.06,-0.085 -0.121,-0.17 -0.182,-0.254c0.061,0.084 0.122,0.169 0.182,0.254" style="fill:#fbb90d;fill-rule:nonzero;"/><path d="M35.537,21.753c-0.066,-0.031 -0.132,-0.063 -0.199,-0.093c0.067,0.03 0.133,0.062 0.199,0.093" style="fill:#fbb90d;fill-rule:nonzero;"/><path d="M46.864,31.865c-0.012,-0.02 -0.025,-0.04 -0.038,-0.06c0.013,0.02 0.026,0.04 0.038,0.06" style="fill:#fbb90d;fill-rule:nonzero;"/><path d="M39.817,24.262c-0.082,-0.059 -0.165,-0.118 -0.248,-0.177c0.083,0.059 0.166,0.118 0.248,0.177" style="fill:#fbb90d;fill-rule:nonzero;"/><path d="M36.421,22.184c-0.082,-0.042 -0.164,-0.083 -0.246,-0.124c0.082,0.041 0.164,0.082 0.246,0.124" style="fill:#fbb90d;fill-rule:nonzero;"/><path d="M37.243,22.622c-0.072,-0.04 -0.145,-0.079 -0.218,-0.118c0.073,0.039 0.146,0.078 0.218,0.118" style="fill:#fbb90d;fill-rule:nonzero;"/><path d="M40.55,24.809c-0.069,-0.054 -0.139,-0.106 -0.208,-0.158c0.069,0.052 0.139,0.104 0.208,0.158" style="fill:#fbb90d;fill-rule:nonzero;"/><path d="M33.831,76.354c-2.95,0.89 -6.079,1.371 -9.317,1.371c-0.241,0 -0.483,-0.004 -0.724,-0.009c4.256,3.153 9.253,5.357 14.681,6.312c3.527,-1.164 6.82,-2.833 9.799,-4.925c-0.272,0.007 -0.545,0.012 -0.819,0.012c-4.834,0 -9.434,-0.989 -13.62,-2.761" style="fill:#3b4fee;fill-rule:nonzero;"/><path d="M23.586,77.71c0,0 0.001,0.001 0.002,0.002c-6.472,-0.184 -12.468,-2.278 -17.445,-5.733c4.632,6.725 11.562,11.736 19.651,13.926c0.29,0.007 0.578,0.022 0.87,0.022c2.961,0 5.839,-0.353 8.603,-0.999c-4.371,-1.627 -8.334,-4.092 -11.679,-7.218c0,0 -0.001,0 -0.002,0" style="fill:#3b4fee;fill-rule:nonzero;"/><path d="M59.504,29.845c0.187,1.353 0.285,2.734 0.285,4.139c0,4.78 -1.119,9.294 -3.107,13.305c-0.018,0.328 -0.04,0.657 -0.067,0.98c-0.049,0.598 -0.117,1.196 -0.202,1.785l0,0.014c-0.045,0.301 -0.095,0.598 -0.144,0.895c-0.05,0.301 -0.108,0.598 -0.167,0.899c0,0.009 0,0.018 -0.004,0.027c-0.059,0.292 -0.122,0.58 -0.189,0.863c-0.067,0.292 -0.139,0.585 -0.216,0.877c-0.072,0.292 -0.153,0.584 -0.238,0.872c-0.081,0.288 -0.167,0.571 -0.261,0.859c-0.274,0.854 -0.58,1.695 -0.926,2.518c-0.117,0.274 -0.234,0.549 -0.355,0.819c-0.122,0.269 -0.248,0.539 -0.374,0.804l0,0.005c-0.13,0.265 -0.26,0.526 -0.395,0.787c-0.149,0.292 -0.306,0.584 -0.468,0.872c-0.117,0.216 -0.238,0.427 -0.364,0.639c-0.157,0.265 -0.315,0.53 -0.481,0.791c-0.122,0.198 -0.248,0.391 -0.373,0.584c-0.54,0.819 -1.111,1.606 -1.718,2.37c-0.157,0.198 -0.315,0.396 -0.481,0.589c-0.086,0.099 -0.171,0.202 -0.256,0.306c-0.212,0.247 -0.428,0.49 -0.644,0.728c-0.66,0.729 -1.357,1.426 -2.081,2.091c-0.144,0.13 -0.293,0.265 -0.441,0.396c-0.126,0.112 -0.247,0.22 -0.373,0.323c-0.018,0.023 -0.041,0.037 -0.059,0.054c-0.153,0.126 -0.31,0.257 -0.467,0.387c-0.153,0.131 -0.306,0.252 -0.459,0.369c-0.153,0.126 -0.31,0.247 -0.467,0.364c-0.171,0.13 -0.342,0.256 -0.513,0.387l-0.005,0c-0.305,0.225 -0.611,0.441 -0.921,0.647c-1.637,1.111 -3.377,2.069 -5.207,2.864c-0.185,0.081 -0.369,0.158 -0.553,0.234c-0.553,0.23 -1.115,0.445 -1.686,0.643c-0.212,0.077 -0.428,0.149 -0.643,0.221c3.552,1.214 7.36,1.87 11.322,1.87c1.444,0 2.866,-0.093 4.263,-0.262c4.49,-3.569 8.149,-8.135 10.633,-13.371c-0.251,0.159 -0.502,0.319 -0.755,0.472c-0.036,0.023 -0.072,0.045 -0.108,0.063c-0.189,0.112 -0.378,0.225 -0.571,0.333c-0.009,0.009 -0.018,0.013 -0.032,0.018c-0.589,0.337 -1.182,0.652 -1.789,0.948c-0.18,0.091 -0.36,0.176 -0.54,0.261c-0.202,0.095 -0.404,0.189 -0.607,0.279c-0.202,0.094 -0.409,0.184 -0.616,0.27c-0.171,0.076 -0.346,0.148 -0.526,0.22c-0.238,0.095 -0.476,0.189 -0.719,0.279c-0.194,0.076 -0.391,0.148 -0.589,0.22c-0.284,0.099 -0.567,0.198 -0.855,0.292l-0.004,0c-0.153,0.054 -0.306,0.104 -0.459,0.153c1.021,-0.499 2.019,-1.047 2.977,-1.641c0.013,-0.009 0.022,-0.013 0.036,-0.022c2.384,-1.543 4.573,-3.365 6.525,-5.414c1.456,-4.011 2.252,-8.337 2.252,-12.851c0,-6.695 -1.755,-12.976 -4.818,-18.424" style="fill:#3b4fee;fill-rule:nonzero;"/></g></svg>