<?xml version="1.0" encoding="UTF-8" standalone="no"?><!DOCTYPE svg PUBLIC "-//W3C//DTD SVG 1.1//EN" "http://www.w3.org/Graphics/SVG/1.1/DTD/svg11.dtd"><svg width="100%" height="100%" viewBox="0 0 104 18" version="1.1" xmlns="http://www.w3.org/2000/svg" xmlns:xlink="http://www.w3.org/1999/xlink" xml:space="preserve" style="fill-rule:evenodd;clip-rule:evenodd;stroke-linejoin:round;stroke-miterlimit:1.41421;"><path d="M6.048,11.256l-1.2,-6.192l-0.048,0l-1.2,6.192l2.448,0Zm-6.048,5.976l3.816,-17.088l2.04,0l3.816,17.088l-2.448,0l-0.72,-3.672l-3.336,0l-0.72,3.672l-2.448,0Z" style="fill:#36008d;fill-rule:nonzero;"/><path d="M16.92,2.448l0,5.328l1.392,0c0.432,0 0.776,-0.06 1.032,-0.18c0.256,-0.12 0.456,-0.292 0.6,-0.516c0.128,-0.224 0.216,-0.5 0.264,-0.828c0.048,-0.328 0.072,-0.708 0.072,-1.14c0,-0.432 -0.024,-0.812 -0.072,-1.14c-0.048,-0.328 -0.144,-0.612 -0.288,-0.852c-0.304,-0.448 -0.88,-0.672 -1.728,-0.672l-1.272,0Zm-2.448,14.784l0,-17.088l3.936,0c2.88,0 4.32,1.672 4.32,5.016c0,1.008 -0.156,1.864 -0.468,2.568c-0.312,0.704 -0.86,1.272 -1.644,1.704l2.64,7.8l-2.592,0l-2.28,-7.296l-1.464,0l0,7.296l-2.448,0Z" style="fill:#36008d;fill-rule:nonzero;"/><path d="M33.24,11.256l-1.2,-6.192l-0.048,0l-1.2,6.192l2.448,0Zm-6.048,5.976l3.816,-17.088l2.04,0l3.816,17.088l-2.448,0l-0.72,-3.672l-3.336,0l-0.72,3.672l-2.448,0Z" style="fill:#36008d;fill-rule:nonzero;"/><path d="M49.44,12.36l0,1.056c0,0.528 -0.1,1.028 -0.3,1.5c-0.2,0.472 -0.476,0.892 -0.828,1.26c-0.352,0.368 -0.764,0.66 -1.236,0.876c-0.472,0.216 -0.98,0.324 -1.524,0.324c-0.464,0 -0.936,-0.064 -1.416,-0.192c-0.48,-0.128 -0.912,-0.352 -1.296,-0.672c-0.384,-0.32 -0.7,-0.732 -0.948,-1.236c-0.248,-0.504 -0.372,-1.148 -0.372,-1.932l0,-9.408c0,-0.56 0.096,-1.08 0.288,-1.56c0.192,-0.48 0.464,-0.896 0.816,-1.248c0.352,-0.352 0.772,-0.628 1.26,-0.828c0.488,-0.2 1.028,-0.3 1.62,-0.3c1.152,0 2.088,0.376 2.808,1.128c0.352,0.368 0.628,0.804 0.828,1.308c0.2,0.504 0.3,1.052 0.3,1.644l0,0.96l-2.448,0l0,-0.816c0,-0.48 -0.136,-0.896 -0.408,-1.248c-0.272,-0.352 -0.64,-0.528 -1.104,-0.528c-0.608,0 -1.012,0.188 -1.212,0.564c-0.2,0.376 -0.3,0.852 -0.3,1.428l0,8.736c0,0.496 0.108,0.912 0.324,1.248c0.216,0.336 0.604,0.504 1.164,0.504c0.16,0 0.332,-0.028 0.516,-0.084c0.184,-0.056 0.356,-0.148 0.516,-0.276c0.144,-0.128 0.264,-0.304 0.36,-0.528c0.096,-0.224 0.144,-0.504 0.144,-0.84l0,-0.84l2.448,0Z" style="fill:#36008d;fill-rule:nonzero;"/><path d="M54.888,4.176c0,-0.688 0.12,-1.296 0.36,-1.824c0.24,-0.528 0.56,-0.968 0.96,-1.32c0.384,-0.336 0.82,-0.592 1.308,-0.768c0.488,-0.176 0.98,-0.264 1.476,-0.264c0.496,0 0.988,0.088 1.476,0.264c0.488,0.176 0.932,0.432 1.332,0.768c0.384,0.352 0.696,0.792 0.936,1.32c0.24,0.528 0.36,1.136 0.36,1.824l0,9.024c0,0.72 -0.12,1.336 -0.36,1.848c-0.24,0.512 -0.552,0.936 -0.936,1.272c-0.4,0.352 -0.844,0.616 -1.332,0.792c-0.488,0.176 -0.98,0.264 -1.476,0.264c-0.496,0 -0.988,-0.088 -1.476,-0.264c-0.488,-0.176 -0.924,-0.44 -1.308,-0.792c-0.4,-0.336 -0.72,-0.76 -0.96,-1.272c-0.24,-0.512 -0.36,-1.128 -0.36,-1.848l0,-9.024Zm2.448,9.024c0,0.592 0.164,1.028 0.492,1.308c0.328,0.28 0.716,0.42 1.164,0.42c0.448,0 0.836,-0.14 1.164,-0.42c0.328,-0.28 0.492,-0.716 0.492,-1.308l0,-9.024c0,-0.592 -0.164,-1.028 -0.492,-1.308c-0.328,-0.28 -0.716,-0.42 -1.164,-0.42c-0.448,0 -0.836,0.14 -1.164,0.42c-0.328,0.28 -0.492,0.716 -0.492,1.308l0,9.024Z" style="fill:#36008d;fill-rule:nonzero;"/><path d="M68.856,17.232l0,-17.088l2.448,0l0,14.64l4.848,0l0,2.448l-7.296,0Z" style="fill:#36008d;fill-rule:nonzero;"/><path d="M81.192,4.176c0,-0.688 0.12,-1.296 0.36,-1.824c0.24,-0.528 0.56,-0.968 0.96,-1.32c0.384,-0.336 0.82,-0.592 1.308,-0.768c0.488,-0.176 0.98,-0.264 1.476,-0.264c0.496,0 0.988,0.088 1.476,0.264c0.488,0.176 0.932,0.432 1.332,0.768c0.384,0.352 0.696,0.792 0.936,1.32c0.24,0.528 0.36,1.136 0.36,1.824l0,9.024c0,0.72 -0.12,1.336 -0.36,1.848c-0.24,0.512 -0.552,0.936 -0.936,1.272c-0.4,0.352 -0.844,0.616 -1.332,0.792c-0.488,0.176 -0.98,0.264 -1.476,0.264c-0.496,0 -0.988,-0.088 -1.476,-0.264c-0.488,-0.176 -0.924,-0.44 -1.308,-0.792c-0.4,-0.336 -0.72,-0.76 -0.96,-1.272c-0.24,-0.512 -0.36,-1.128 -0.36,-1.848l0,-9.024Zm2.448,9.024c0,0.592 0.164,1.028 0.492,1.308c0.328,0.28 0.716,0.42 1.164,0.42c0.448,0 0.836,-0.14 1.164,-0.42c0.328,-0.28 0.492,-0.716 0.492,-1.308l0,-9.024c0,-0.592 -0.164,-1.028 -0.492,-1.308c-0.328,-0.28 -0.716,-0.42 -1.164,-0.42c-0.448,0 -0.836,0.14 -1.164,0.42c-0.328,0.28 -0.492,0.716 -0.492,1.308l0,9.024Z" style="fill:#36008d;fill-rule:nonzero;"/><path d="M97.608,2.448l0,5.328l1.392,0c0.432,0 0.776,-0.06 1.032,-0.18c0.256,-0.12 0.456,-0.292 0.6,-0.516c0.128,-0.224 0.216,-0.5 0.264,-0.828c0.048,-0.328 0.072,-0.708 0.072,-1.14c0,-0.432 -0.024,-0.812 -0.072,-1.14c-0.048,-0.328 -0.144,-0.612 -0.288,-0.852c-0.304,-0.448 -0.88,-0.672 -1.728,-0.672l-1.272,0Zm-2.448,14.784l0,-17.088l3.936,0c2.88,0 4.32,1.672 4.32,5.016c0,1.008 -0.156,1.864 -0.468,2.568c-0.312,0.704 -0.86,1.272 -1.644,1.704l2.64,7.8l-2.592,0l-2.28,-7.296l-1.464,0l0,7.296l-2.448,0Z" style="fill:#36008d;fill-rule:nonzero;"/></svg>