<?xml version="1.0" encoding="utf-8"?>
<!-- Generator: Adobe Illustrator 16.0.0, SVG Export Plug-In . SVG Version: 6.00 Build 0)  -->
<!DOCTYPE svg PUBLIC "-//W3C//DTD SVG 1.1//EN" "http://www.w3.org/Graphics/SVG/1.1/DTD/svg11.dtd">
<svg version="1.1" id="Layer_1" xmlns="http://www.w3.org/2000/svg" xmlns:xlink="http://www.w3.org/1999/xlink" x="0px" y="0px"
	 width="104px" height="62.807px" viewBox="0 0 104 62.807" enable-background="new 0 0 104 62.807" xml:space="preserve">
<title>logoPalladium-n</title>
<path d="M0,62.544h1.604l0.074-5.326h1.844c2.121,0,4.58-0.988,4.58-3.854c0-2.459-1.658-3.705-4.094-3.705H0.113L0,62.544z
	 M1.697,50.776h1.936c2.084,0,2.865,1.209,2.865,2.588c0,1.859-1.432,2.623-2.793,2.623H1.668L1.697,50.776z M9.346,62.341
	l1.49,0.465l1.881-4.543h5.322l1.754,4.543l1.596-0.523l-5.117-12.621h-1.527L9.346,62.341L9.346,62.341z M17.494,56.907h-4.221
	l2.16-5.809h0.037L17.494,56.907z M23.518,62.544l0.107-12.885h1.604l-0.113,11.543h5.494v1.342H23.518z M33.195,62.544
	l0.113-12.885h1.602l-0.111,11.543h5.492v1.342H33.195z M41.5,62.341l1.49,0.465l1.881-4.543h5.322l1.75,4.543l1.602-0.523
	l-5.119-12.621h-1.527L41.5,62.341L41.5,62.341z M49.648,56.907h-4.217l2.158-5.809h0.039L49.648,56.907L49.648,56.907z
	 M55.678,62.544h3.559c4.168,0,7.391-2.254,7.391-6.609c0-3.146-2.01-6.273-6.963-6.273h-3.881L55.678,62.544L55.678,62.544z
	 M57.375,50.889h1.973c3.445,0,5.66,1.896,5.66,5.141c0,3.537-2.348,5.285-6.033,5.285h-1.697L57.375,50.889z M69.762,49.659h1.604
	l-0.111,12.885H69.65L69.762,49.659z M85.346,49.659l-0.057,8.025c-0.057,4.135-2.715,5.121-5.211,5.121
	c-2.793,0-5.008-1.25-5.008-5.158c0-1.018,0.021-2.217,0.037-3.52l0.039-4.469h1.602l-0.037,4.752
	c-0.021,1.209-0.037,2.441-0.037,3.629c0,2.348,1.246,3.428,3.518,3.428c1.898,0,3.482-0.932,3.5-3.875l0.055-7.93L85.346,49.659z
	 M90.484,49.659h1.656l3.891,10.875l4.189-10.875h1.732L104,62.544l-1.563,0.262l-1.639-11.023h-0.037L96.76,62.544H95.23
	l-3.74-10.762h-0.037l-1.77,11.023l-1.545-0.262L90.484,49.659z"/>
<path d="M52.215,20.107l-1.02,0.251l-0.768-1.32c0.1-0.24,0.385-0.95,0.459-1.127c0.098-0.159,0.068-0.365-0.068-0.492l-0.625-0.547
	l6.186-7.099l0.484,5.527L52.215,20.107z M64.703,3.028L61.252,0l-0.551,0.628l2.51,2.203c-0.861,0-1.963,0.189-2.643,0.902
	L49.566,16.322l-0.432-0.367c-1.033-0.908-2.607-0.807-3.518,0.228l0,0l-0.002,0.004l-2.217,2.553
	c-0.256,0.291-0.229,0.734,0.063,0.99s0.734,0.228,0.99-0.063l1.76-2.037l0.217,0.415l-1.438,1.664
	c-0.246,0.298-0.203,0.738,0.094,0.983c0.285,0.234,0.703,0.208,0.955-0.061l1.137-1.321l0.23,0.374l-0.895,1.073
	c-0.256,0.29-0.227,0.732,0.063,0.987c0.291,0.256,0.734,0.227,0.988-0.063l0.826-0.92l0.781,1.307l-2.359,2.699l-0.516-0.455
	c-0.596-0.521-1.488-0.506-2.064,0.034c-0.043,0.032-0.084,0.068-0.119,0.109l-0.996,1.112l-0.539-0.496
	c-0.641-0.561-1.613-0.496-2.174,0.144l-5.193,5.931c-0.289,0.338-0.25,0.845,0.088,1.134c0.332,0.285,0.828,0.252,1.121-0.07
	l3.104-3.535l0.395,0.363l-1.598,1.818c-0.291,0.337-0.254,0.846,0.082,1.138c0.336,0.291,0.846,0.254,1.137-0.082l3.365-3.833
	l0.395,0.34l-0.859,0.983c-0.311,0.317-0.309,0.826,0.01,1.139c0.316,0.313,0.826,0.309,1.137-0.009
	c0.023-0.022,0.043-0.046,0.063-0.07l2.768-3.15c0.48,0.285,1.096,0.188,1.463-0.234l2.516-2.901l2.059,3.537l1.15-1.314
	l0.271,0.275l-7.902,9.105l1.141,0.387l-6.037,7.469l-2.857,2.473v0.432h2.678l1.406-2.102l6.25-5.133l2.014-2.063l0.859,0.271
	l2.559-2.887l4.031,2.426l-1.746,1.988l0.777,0.248l-4.752,6.324l-0.715,0.939h6.215v-0.438l-2.973-0.965l5.123-4.982l0.6,0.217
	c0,0,2.461-2.771,2.715-3.1c0.529-0.68,0.588-1.594-0.059-2.199c-0.189-0.178-5.633-4.938-5.633-4.938l0.635-0.773l-1.818-8.6
	l3.057-4.699l-2.201-7.296l2.961-3.351l0.947-1.073c0.732-0.838,2.563-0.709,3.205-0.594L64.9,3.865l0.32-0.374l-0.514-0.455"/>
</svg>
