<?xml version="1.0" encoding="UTF-8" standalone="no"?><!DOCTYPE svg PUBLIC "-//W3C//DTD SVG 1.1//EN" "http://www.w3.org/Graphics/SVG/1.1/DTD/svg11.dtd"><svg width="100%" height="100%" viewBox="0 0 1997 431" version="1.1" xmlns="http://www.w3.org/2000/svg" xmlns:xlink="http://www.w3.org/1999/xlink" xml:space="preserve" style="fill-rule:evenodd;clip-rule:evenodd;stroke-linejoin:round;stroke-miterlimit:1.41421;"><g><path d="M0.047,372.773c0,-123.539 0.004,-247.078 -0.043,-370.617c-0.001,-1.76 0.396,-2.156 2.156,-2.156c361.697,0.046 723.395,0.044 1085.09,0.044c0.027,0.138 0.018,0.273 -0.029,0.405c-58.056,2.427 -106.988,25.221 -147.764,66.245c-0.678,-0.439 -0.724,-1.201 -0.996,-1.811c-6.258,-14.03 -16.302,-24.421 -30.131,-31.064c-11.696,-5.619 -24.229,-7.455 -37.054,-7.465c-59.064,-0.047 -118.127,-0.005 -177.191,-0.086c-2.062,-0.003 -2.571,0.767 -3.024,2.473c-6.335,23.821 -12.733,47.625 -19.107,71.436c-1.109,4.144 -2.176,8.298 -3.308,12.62l139.037,0c1.017,0 2.036,-0.031 3.051,0.024c7.585,0.41 11.818,3.437 13.447,9.711c0.755,2.906 0.65,5.834 0.255,8.829c-2.007,15.252 -13.282,25.275 -28.614,25.276c-45.53,0.001 -91.06,0.006 -136.59,-0.026c-1.56,-0.001 -2.481,0.188 -2.961,1.992c-7.268,27.355 -14.596,54.694 -22.002,82.011c-0.595,2.194 -0.248,2.633 2.018,2.628c33.873,-0.069 67.747,-0.036 101.62,-0.053c5.175,-0.002 10.299,0.436 15.365,1.462c11.485,2.326 15.737,8.017 14.661,19.652c-0.438,4.741 -1.258,9.426 -2.487,14.03c-8.222,30.802 -16.456,61.602 -24.682,92.403c-0.711,2.662 -0.704,2.665 2.147,2.665c32.857,0 65.713,-0.024 98.57,0.057c2.192,0.005 3.014,-0.58 3.581,-2.729c6.726,-25.487 13.648,-50.922 20.362,-76.412c5.147,-19.541 10.933,-38.918 15.167,-57.905c10.64,106.965 100.719,189.863 206.631,193.229c0.046,0.132 0.056,0.268 0.028,0.405c-361.698,0 -723.396,-0.001 -1085.09,0.044c-1.76,0 -2.166,-0.395 -2.159,-2.156c0.075,-18.229 0.046,-36.459 0.046,-54.689c0.699,0.053 1.397,0.151 2.096,0.151c80.104,0.007 160.208,0 240.313,0.055c1.702,0.001 2.241,-0.594 2.637,-2.08c6.186,-23.216 12.422,-46.418 18.638,-69.627c1.313,-4.901 2.586,-9.812 3.917,-14.866c-1.156,0 -2.013,0 -2.87,0c-45.137,0 -90.274,-0.013 -135.411,0.042c-2.088,0.003 -2.327,-0.405 -1.776,-2.396c3.562,-12.891 7.025,-25.81 10.374,-38.758c0.516,-1.997 1.194,-2.632 3.324,-2.628c45.293,0.076 90.586,0.049 135.88,0.09c1.658,0.001 2.342,-0.361 2.811,-2.128c7.221,-27.205 14.571,-54.376 21.84,-81.569c0.806,-3.016 1.449,-2.892 -2.361,-2.892c-79.479,-0.001 -158.957,-0.001 -238.436,-0.001c-0.391,0 -0.788,0.042 -1.172,-0.007c-1.334,-0.17 -1.843,0.374 -2.183,1.725c-1.518,6.032 -3.218,12.017 -4.829,18.025c-15.403,57.451 -30.793,114.908 -46.208,172.359c-2.153,8.022 -4.059,16.112 -6.583,24.033Zm462.475,-346.316c-0.458,-0.054 -0.76,-0.12 -1.061,-0.12c-33.876,-0.005 -67.752,0.006 -101.628,-0.045c-1.342,-0.002 -1.717,0.576 -1.988,1.632c-0.795,3.088 -1.61,6.17 -2.436,9.25c-14.657,54.682 -29.434,109.332 -43.931,164.056c-7.866,29.693 -16.827,59.12 -22.513,89.361c-2.372,12.615 -4.239,25.286 -2.103,38.165c1.409,8.491 3.917,16.5 9.746,23.145c7.249,8.265 16.612,13.032 26.906,16.125c14.036,4.216 28.505,5.322 43.07,5.331c69.786,0.042 139.572,0.027 209.358,0.083c1.708,0.001 2.378,-0.481 2.825,-2.154c14.539,-54.473 29.14,-108.929 43.722,-163.39c14.782,-55.212 29.554,-110.427 44.333,-165.639c1.404,-5.244 2.821,-10.484 4.243,-15.768c-0.46,-0.076 -0.688,-0.147 -0.917,-0.147c-33.72,-0.006 -67.439,0.01 -101.159,-0.059c-1.703,-0.003 -1.838,0.903 -2.143,2.046c-11.638,43.576 -23.282,87.151 -34.932,130.724c-11.229,41.995 -22.476,83.984 -33.653,125.992c-0.379,1.424 -0.854,1.854 -2.309,1.85c-22.141,-0.055 -44.282,0.034 -66.421,-0.104c-6.938,-0.043 -13.912,-0.429 -20.567,-2.754c-5.285,-1.846 -8.757,-5.396 -9.374,-11.125c-0.419,-3.894 -0.104,-7.805 0.631,-11.668c1.865,-9.796 4.769,-19.332 7.333,-28.948c16.167,-60.638 32.401,-121.257 48.609,-181.883c2.126,-7.956 4.226,-15.917 6.359,-23.956Zm-125.042,-0.125c-0.664,0 -1.129,0 -1.595,0c-80.325,0 -160.65,0.005 -240.975,-0.04c-1.595,-0.001 -2.044,0.613 -2.413,1.995c-7.277,27.266 -14.602,54.519 -21.919,81.774c-0.734,2.735 -0.741,2.734 2.01,2.734c79.699,0 159.398,-0.01 239.098,0.055c2.103,0.002 2.857,-0.572 3.392,-2.605c5.322,-20.224 10.771,-40.414 16.181,-60.615c2.066,-7.715 4.121,-15.432 6.221,-23.298Z" style="fill:none;"/><path d="M1101.8,0.044c297.542,0 595.084,0.002 892.626,-0.043c1.76,0 2.157,0.396 2.156,2.156c-0.048,141.925 -0.048,283.85 0,425.775c0.001,1.759 -0.396,2.157 -2.156,2.156c-297.542,-0.045 -595.083,-0.044 -892.626,-0.044c-0.041,-0.14 -0.032,-0.276 0.027,-0.41c72.787,-3.719 129.152,-36.871 171.525,-95.797c-3.557,13.295 -7.037,26.302 -10.565,39.493l141.346,0c9.308,0 18.603,-0.199 27.894,-0.937c15.042,-1.195 29.9,-3.406 44.408,-7.607c23.237,-6.728 42.685,-19.237 57.482,-38.525c10.332,-13.468 16.741,-28.854 21.419,-45.062c3.422,-11.858 4.563,-23.753 1.045,-35.749c-5.559,-18.956 -17.752,-32.41 -34.983,-41.582c-1.555,-0.828 -3.15,-1.579 -4.951,-2.476c0.818,-0.533 1.374,-0.921 1.954,-1.268c8.048,-4.809 15.812,-10.029 23.089,-15.951c35.213,-28.653 49.693,-66.278 47.456,-110.873c-0.483,-9.643 -4.696,-18.175 -11.572,-25.196c-7.91,-8.078 -17.871,-12.319 -28.531,-15.18c-17.851,-4.79 -36.153,-6.359 -54.513,-6.474c-45.607,-0.286 -91.219,-0.111 -136.827,-0.169c-1.365,-0.002 -1.883,0.432 -2.218,1.687c-7.333,27.499 -14.673,54.996 -22.11,82.467c-0.573,2.116 -0.123,2.373 1.88,2.369c34.344,-0.059 68.688,-0.042 103.031,-0.042c7.197,0 14.396,-0.049 21.593,0.016c7.076,0.064 11.361,3.587 12.966,10.454c0.757,3.238 0.81,6.516 0.465,9.789c-1.057,10.026 -5.426,17.802 -15.157,21.8c-3.508,1.441 -7.205,1.969 -10.981,1.97c-17.915,0.004 -35.83,0.002 -53.745,0.002c-23.393,0 -46.783,0.032 -70.175,-0.06c-1.898,-0.007 -2.52,0.657 -2.932,2.288c-1.369,5.428 -2.826,10.833 -4.276,16.241c-2.24,8.35 -4.502,16.694 -6.755,25.041c-4.912,-54.488 -26.392,-101.197 -65.705,-139.206c-39.384,-38.076 -86.733,-58.255 -141.555,-60.646c-0.061,-0.13 -0.071,-0.267 -0.029,-0.407Zm722.706,373.197c0,0.03 0,0.06 0,0.089c20.105,0 40.211,-0.037 60.315,0.058c1.987,0.009 2.622,-0.641 3.099,-2.438c7.221,-27.207 14.494,-54.399 21.84,-81.573c0.545,-2.014 0.481,-2.593 -1.86,-2.568c-11.812,0.126 -23.625,0.121 -35.438,0.041c-12.741,-0.086 -25.502,0.545 -38.21,-0.913c-4.271,-0.49 -8.492,-1.156 -12.339,-3.251c-3.364,-1.833 -5.173,-4.56 -5.209,-8.491c-0.031,-3.312 0.42,-6.539 1.269,-9.713c9.374,-35.082 18.767,-70.16 28.158,-105.237c0.714,-2.667 0.731,-2.664 -2.05,-2.664c-30.51,0 -61.02,0.027 -91.529,-0.059c-2.123,-0.006 -2.909,0.611 -3.436,2.607c-5.009,19.025 -10.198,38.002 -15.184,57.033c-8.04,30.695 -17.431,61.065 -22.567,92.466c-1.464,8.952 -2.779,17.963 -1.165,27.031c2.503,14.049 9.466,24.951 22.813,31.037c10.41,4.747 21.557,6.307 32.821,6.468c19.554,0.279 39.115,0.077 58.672,0.077Zm-220.412,0.089c16.898,0 33.798,-0.015 50.696,0.027c1.457,0.003 2.112,-0.294 2.53,-1.893c3.616,-13.843 7.38,-27.647 11.084,-41.467c15.261,-56.934 30.517,-113.871 45.777,-170.805c0.699,-2.61 0.716,-2.61 -1.96,-2.61c-33.328,-0.001 -66.656,0.025 -99.984,-0.061c-2.152,-0.005 -2.912,0.668 -3.434,2.646c-5.359,20.3 -10.801,40.579 -16.236,60.859c-13.509,50.401 -27.021,100.8 -40.565,151.191c-0.441,1.643 -0.328,2.174 1.63,2.164c16.82,-0.088 33.642,-0.051 50.462,-0.051Zm391.954,-346.998c-0.799,0 -1.421,0 -2.043,0c-73.771,0 -147.543,0.012 -221.314,-0.063c-2.08,-0.002 -2.393,1.021 -2.786,2.5c-7.27,27.275 -14.535,54.551 -21.88,81.806c-0.478,1.773 -0.358,2.228 1.604,2.227c73.772,-0.046 147.544,-0.046 221.315,0.009c1.564,0.001 2.152,-0.49 2.523,-1.881c7.482,-28.099 14.992,-56.19 22.581,-84.598Zm-322.114,86.43c16.896,0 33.791,-0.017 50.687,0.031c1.473,0.004 2.122,-0.343 2.532,-1.888c7.318,-27.579 14.694,-55.143 22.141,-82.688c0.453,-1.676 0.184,-1.93 -1.44,-1.928c-33.869,0.039 -67.738,0.039 -101.607,-0.007c-1.346,-0.002 -1.906,0.391 -2.242,1.655c-7.345,27.571 -14.687,55.143 -22.152,82.682c-0.613,2.267 0.245,2.167 1.866,2.164c16.737,-0.033 33.476,-0.021 50.215,-0.021Z" style="fill:none;"/><path d="M0.047,372.773c2.524,-7.921 4.43,-16.011 6.583,-24.034c15.415,-57.45 30.805,-114.907 46.208,-172.361c1.611,-6.008 3.311,-11.994 4.829,-18.025c0.34,-1.351 0.849,-1.895 2.183,-1.725c0.385,0.049 0.781,0.007 1.172,0.007c79.479,0 158.957,0 238.436,0.001c3.811,0 3.167,-0.124 2.361,2.892c-7.269,27.193 -14.619,54.364 -21.84,81.569c-0.469,1.767 -1.153,2.129 -2.811,2.128c-45.293,-0.041 -90.586,-0.015 -135.88,-0.09c-2.13,-0.004 -2.808,0.632 -3.324,2.628c-3.348,12.948 -6.812,25.867 -10.374,38.758c-0.55,1.991 -0.312,2.399 1.776,2.396c45.137,-0.056 90.273,-0.042 135.411,-0.042c0.857,0 1.714,0 2.87,0c-1.331,5.054 -2.604,9.965 -3.917,14.866c-6.215,23.208 -12.452,46.411 -18.638,69.627c-0.396,1.486 -0.935,2.082 -2.637,2.08c-80.104,-0.055 -160.208,-0.048 -240.313,-0.055c-0.699,0 -1.397,-0.098 -2.096,-0.151c0.001,-0.156 0.001,-0.312 0.001,-0.469Z" style="fill:#020202;"/><path d="M1101.8,0.044c-0.042,0.14 -0.032,0.277 0.027,0.41c-4.869,-0.002 -9.738,-0.003 -14.608,-0.005c0.047,-0.132 0.057,-0.267 0.029,-0.405c4.851,0 9.702,0 14.552,0Z" style="fill:#a8a8a8;"/><path d="M1101.83,429.634c-0.06,0.133 -0.068,0.27 -0.027,0.41c-4.85,0 -9.701,0 -14.552,0c0.027,-0.137 0.018,-0.272 -0.028,-0.405c4.869,-0.002 9.738,-0.003 14.607,-0.005Z" style="fill:#a8a8a8;"/><path d="M1101.83,429.634c-4.869,0.001 -9.738,0.003 -14.607,0.005c-105.912,-3.365 -195.991,-86.263 -206.631,-193.229c-4.234,18.986 -10.021,38.364 -15.167,57.905c-6.713,25.49 -13.636,50.925 -20.362,76.412c-0.567,2.149 -1.389,2.734 -3.581,2.729c-32.856,-0.081 -65.713,-0.056 -98.57,-0.057c-2.851,0 -2.858,-0.003 -2.147,-2.665c8.227,-30.801 16.46,-61.601 24.682,-92.403c1.229,-4.604 2.048,-9.29 2.487,-14.03c1.076,-11.635 -3.176,-17.326 -14.661,-19.652c-5.066,-1.026 -10.19,-1.464 -15.365,-1.462c-33.874,0.017 -67.747,-0.016 -101.62,0.053c-2.266,0.005 -2.613,-0.434 -2.018,-2.628c7.406,-27.317 14.734,-54.656 22.002,-82.011c0.48,-1.804 1.401,-1.993 2.961,-1.992c45.53,0.032 91.06,0.027 136.59,0.026c15.332,0 26.607,-10.024 28.614,-25.276c0.395,-2.995 0.5,-5.922 -0.255,-8.829c-1.628,-6.274 -5.861,-9.301 -13.447,-9.711c-1.015,-0.055 -2.034,-0.024 -3.051,-0.024c-45.374,-0.001 -90.747,0 -136.12,0c-0.856,0 -1.712,0 -2.917,0c1.132,-4.322 2.199,-8.476 3.308,-12.62c6.374,-23.811 12.772,-47.615 19.107,-71.436c0.454,-1.706 0.963,-2.476 3.024,-2.473c59.063,0.081 118.127,0.039 177.191,0.086c12.825,0.01 25.357,1.846 37.054,7.465c13.83,6.643 23.873,17.034 30.131,31.064c0.272,0.61 0.318,1.372 0.996,1.811c40.776,-41.024 89.708,-63.818 147.764,-66.245c4.87,0.002 9.739,0.003 14.608,0.005c54.821,2.391 102.171,22.57 141.555,60.646c39.313,38.008 60.793,84.717 65.705,139.206c2.253,-8.347 4.515,-16.691 6.755,-25.041c1.45,-5.407 2.907,-10.813 4.276,-16.241c0.412,-1.631 1.033,-2.295 2.932,-2.288c23.392,0.092 46.782,0.06 70.175,0.06c17.915,0 35.83,0.001 53.745,-0.002c3.776,-0.001 7.474,-0.529 10.981,-1.97c9.731,-3.999 14.101,-11.774 15.157,-21.8c0.345,-3.273 0.292,-6.551 -0.465,-9.789c-1.604,-6.867 -5.89,-10.39 -12.966,-10.454c-7.197,-0.065 -14.396,-0.016 -21.593,-0.016c-34.344,0 -68.688,-0.017 -103.031,0.042c-2.003,0.003 -2.453,-0.253 -1.88,-2.369c7.438,-27.471 14.777,-54.968 22.11,-82.467c0.335,-1.255 0.853,-1.688 2.218,-1.687c45.608,0.058 91.22,-0.117 136.827,0.169c18.359,0.115 36.662,1.684 54.513,6.474c10.66,2.86 20.621,7.102 28.531,15.18c6.876,7.021 11.089,15.554 11.572,25.196c2.237,44.595 -12.243,82.22 -47.456,110.873c-7.277,5.921 -15.041,11.142 -23.089,15.951c-0.58,0.347 -1.136,0.735 -1.954,1.268c1.801,0.897 3.396,1.648 4.951,2.476c17.231,9.172 29.425,22.626 34.983,41.582c3.518,11.995 2.377,23.891 -1.045,35.749c-4.678,16.208 -11.087,31.594 -21.419,45.062c-14.798,19.288 -34.245,31.797 -57.482,38.525c-14.508,4.201 -29.366,6.412 -44.408,7.607c-9.291,0.738 -18.586,0.937 -27.894,0.937c-46.157,0.001 -92.314,0 -138.472,0c-0.855,0 -1.71,0 -2.874,0c3.528,-13.191 7.009,-26.198 10.565,-39.493c-42.37,58.925 -98.735,92.077 -171.523,95.796Zm-7.751,-345.071c-0.761,2.64 -1.305,4.649 -1.918,6.638c-5.061,16.406 -14.077,30.628 -24.425,44.103c-11.91,15.509 -25.361,29.721 -37.779,44.803c-9.785,11.883 -18.926,24.196 -25.556,38.193c-4.502,9.504 -7.626,19.435 -8.545,29.917c-0.867,9.891 1.647,19.207 6.17,27.938c7.976,15.396 20.428,26.318 35.632,34.071c29.024,14.8 59.44,17.134 90.688,8.704c19.542,-5.271 36.718,-14.833 49.714,-30.722c11.988,-14.657 17.147,-31.142 12.562,-50.148c-3.38,-14.008 -9.725,-26.519 -17.891,-38.227c-10.724,-15.375 -23.705,-28.84 -36.188,-42.726c-9.823,-10.927 -19.469,-21.994 -27.396,-34.428c-7.35,-11.527 -12.822,-23.806 -15.068,-38.116Zm202.65,202.211c0.377,0.04 0.609,0.086 0.842,0.086c38.561,0.003 77.122,0.099 115.682,-0.043c16.48,-0.061 28.289,-15.914 24.131,-31.888c-1.845,-7.087 -6.9,-11.704 -13.104,-11.709c-38.404,-0.033 -76.809,-0.008 -115.213,-0.064c-1.6,-0.002 -1.952,0.588 -2.122,1.974c-0.865,7.042 -2.321,13.977 -3.994,20.868c-1.705,7.021 -3.874,13.905 -6.222,20.776Zm-458.93,-79.959c0.771,1.119 1.337,1.08 1.859,1.191c6.836,1.463 13.904,2.108 20.408,4.775c8.785,3.604 17.233,7.805 20.106,18.135c-0.73,-10.907 -0.59,-21.785 0.134,-32.999c-13.531,6.577 -27.606,8.854 -42.507,8.898Z" style="fill:#020202;"/><path d="M462.522,26.457c-2.133,8.039 -4.233,16 -6.359,23.954c-16.208,60.626 -32.442,121.246 -48.609,181.883c-2.564,9.617 -5.467,19.152 -7.333,28.948c-0.735,3.863 -1.05,7.774 -0.631,11.668c0.617,5.729 4.089,9.279 9.374,11.125c6.655,2.325 13.63,2.711 20.567,2.754c22.14,0.139 44.281,0.049 66.421,0.104c1.455,0.003 1.93,-0.426 2.309,-1.85c11.177,-42.008 22.424,-83.998 33.653,-125.992c11.65,-43.573 23.294,-87.147 34.932,-130.724c0.305,-1.144 0.44,-2.05 2.143,-2.046c33.72,0.069 67.439,0.053 101.159,0.059c0.229,0 0.458,0.071 0.917,0.147c-1.422,5.284 -2.839,10.524 -4.243,15.768c-14.779,55.212 -29.551,110.427 -44.333,165.639c-14.583,54.461 -29.183,108.917 -43.722,163.39c-0.446,1.673 -1.117,2.155 -2.825,2.154c-69.786,-0.056 -139.572,-0.041 -209.358,-0.083c-14.565,-0.009 -29.035,-1.115 -43.07,-5.331c-10.294,-3.092 -19.657,-7.859 -26.906,-16.125c-5.828,-6.645 -8.337,-14.654 -9.746,-23.145c-2.136,-12.878 -0.269,-25.55 2.103,-38.165c5.686,-30.241 14.647,-59.668 22.513,-89.361c14.497,-54.724 29.273,-109.374 43.931,-164.056c0.826,-3.08 1.641,-6.163 2.436,-9.25c0.271,-1.056 0.646,-1.634 1.988,-1.632c33.876,0.051 67.752,0.04 101.628,0.045c0.301,0.002 0.603,0.069 1.061,0.122Z" style="fill:#020202;"/><path d="M337.48,26.332c-2.1,7.865 -4.155,15.583 -6.221,23.298c-5.41,20.201 -10.859,40.391 -16.181,60.615c-0.535,2.033 -1.289,2.607 -3.392,2.605c-79.7,-0.064 -159.399,-0.054 -239.098,-0.055c-2.751,0 -2.744,0.001 -2.01,-2.734c7.317,-27.255 14.642,-54.508 21.919,-81.773c0.369,-1.382 0.817,-1.996 2.413,-1.995c80.325,0.045 160.65,0.04 240.975,0.04c0.465,-0.001 0.931,-0.001 1.595,-0.001Z" style="fill:#020202;"/><path d="M1824.51,373.241c-19.558,0 -39.118,0.201 -58.671,-0.078c-11.265,-0.161 -22.411,-1.721 -32.821,-6.468c-13.348,-6.085 -20.311,-16.988 -22.813,-31.037c-1.614,-9.067 -0.299,-18.079 1.165,-27.031c5.137,-31.401 14.527,-61.771 22.567,-92.466c4.985,-19.031 10.175,-38.008 15.184,-57.033c0.526,-1.996 1.313,-2.613 3.436,-2.607c30.51,0.086 61.02,0.059 91.529,0.059c2.781,0 2.764,-0.003 2.05,2.664c-9.392,35.078 -18.784,70.155 -28.158,105.237c-0.849,3.174 -1.3,6.401 -1.269,9.713c0.036,3.931 1.845,6.658 5.209,8.491c3.847,2.096 8.068,2.762 12.339,3.251c12.708,1.458 25.469,0.827 38.21,0.913c11.813,0.08 23.626,0.085 35.438,-0.041c2.342,-0.025 2.405,0.554 1.86,2.568c-7.346,27.173 -14.619,54.366 -21.84,81.573c-0.477,1.797 -1.111,2.447 -3.099,2.438c-20.104,-0.094 -40.21,-0.058 -60.315,-0.058c-0.001,-0.028 -0.001,-0.058 -0.001,-0.088Z" style="fill:#020202;"/><path d="M1604.1,373.33c-16.82,0 -33.642,-0.037 -50.462,0.05c-1.958,0.01 -2.071,-0.521 -1.63,-2.164c13.544,-50.391 27.057,-100.791 40.565,-151.191c5.436,-20.28 10.877,-40.559 16.236,-60.859c0.521,-1.978 1.281,-2.651 3.434,-2.646c33.328,0.086 66.656,0.06 99.984,0.061c2.676,0 2.659,0 1.96,2.61c-15.261,56.935 -30.517,113.871 -45.777,170.805c-3.704,13.82 -7.468,27.625 -11.084,41.467c-0.418,1.599 -1.073,1.896 -2.53,1.893c-16.898,-0.041 -33.798,-0.026 -50.696,-0.026Z" style="fill:#020202;"/><path d="M1996.05,26.332c-7.589,28.407 -15.099,56.499 -22.58,84.597c-0.371,1.392 -0.959,1.882 -2.523,1.881c-73.771,-0.055 -147.543,-0.055 -221.315,-0.009c-1.963,0.001 -2.082,-0.453 -1.604,-2.227c7.345,-27.255 14.61,-54.531 21.88,-81.806c0.394,-1.479 0.706,-2.502 2.786,-2.5c73.771,0.075 147.543,0.063 221.314,0.063c0.621,0.001 1.243,0.001 2.042,0.001Z" style="fill:#020202;"/><path d="M1673.94,112.762c-16.739,0 -33.478,-0.012 -50.217,0.021c-1.621,0.003 -2.479,0.103 -1.866,-2.164c7.466,-27.539 14.808,-55.11 22.152,-82.682c0.336,-1.264 0.896,-1.657 2.242,-1.655c33.869,0.046 67.738,0.046 101.607,0.007c1.624,-0.001 1.894,0.252 1.44,1.928c-7.446,27.544 -14.822,55.108 -22.141,82.688c-0.41,1.545 -1.06,1.892 -2.532,1.888c-16.894,-0.048 -33.79,-0.031 -50.685,-0.031Z" style="fill:#020202;"/><path d="M1094.08,84.563c2.245,14.31 7.718,26.588 15.068,38.116c7.928,12.434 17.573,23.5 27.396,34.428c12.482,13.886 25.464,27.351 36.188,42.726c8.166,11.708 14.511,24.218 17.891,38.227c4.586,19.006 -0.573,35.491 -12.562,50.148c-12.996,15.889 -30.172,25.45 -49.714,30.722c-31.248,8.43 -61.664,6.097 -90.688,-8.704c-15.204,-7.752 -27.656,-18.675 -35.632,-34.071c-4.523,-8.73 -7.037,-18.046 -6.17,-27.938c0.919,-10.482 4.042,-20.413 8.545,-29.917c6.63,-13.997 15.771,-26.31 25.556,-38.193c12.418,-15.082 25.869,-29.294 37.779,-44.803c10.348,-13.475 19.364,-27.697 24.425,-44.103c0.614,-1.988 1.158,-3.998 1.918,-6.638Z" style="fill:none;"/><path d="M1296.73,286.774c2.348,-6.872 4.518,-13.755 6.221,-20.776c1.673,-6.892 3.129,-13.826 3.994,-20.868c0.17,-1.386 0.522,-1.976 2.122,-1.974c38.404,0.057 76.809,0.032 115.213,0.064c6.204,0.005 11.26,4.622 13.104,11.709c4.158,15.974 -7.65,31.827 -24.131,31.888c-38.56,0.142 -77.121,0.046 -115.682,0.043c-0.232,0.001 -0.464,-0.046 -0.841,-0.086Z" style="fill:none;"/><path d="M837.8,206.815c14.901,-0.044 28.976,-2.321 42.507,-8.897c-0.724,11.214 -0.864,22.092 -0.134,32.999c-2.873,-10.33 -11.321,-14.531 -20.106,-18.135c-6.504,-2.667 -13.572,-3.313 -20.408,-4.775c-0.521,-0.112 -1.088,-0.073 -1.859,-1.192Z" style="fill:#fefefe;"/></g></svg>