<?xml version="1.0" encoding="utf-8"?>
<!-- Generator: Adobe Illustrator 16.0.0, SVG Export Plug-In . SVG Version: 6.00 Build 0)  -->
<!DOCTYPE svg PUBLIC "-//W3C//DTD SVG 1.1//EN" "http://www.w3.org/Graphics/SVG/1.1/DTD/svg11.dtd">
<svg version="1.1" id="Слой_1" xmlns="http://www.w3.org/2000/svg" xmlns:xlink="http://www.w3.org/1999/xlink" x="0px" y="0px"
	 width="612px" height="792px" viewBox="0 0 612 792" enable-background="new 0 0 612 792" xml:space="preserve">
<linearGradient id="SVGID_1_" gradientUnits="userSpaceOnUse" x1="-0.5012" y1="395.9956" x2="607.5081" y2="395.9956">
	<stop  offset="0.0054" style="stop-color:#66FF1B"/>
	<stop  offset="0.0157" style="stop-color:#6FEF2D"/>
	<stop  offset="0.0844" style="stop-color:#A9889D"/>
	<stop  offset="0.1318" style="stop-color:#CD46E3"/>
	<stop  offset="0.1538" style="stop-color:#DB2DFF"/>
	<stop  offset="0.3333" style="stop-color:#CB0000"/>
	<stop  offset="0.4839" style="stop-color:#57007F"/>
	<stop  offset="0.5375" style="stop-color:#816644"/>
	<stop  offset="0.5978" style="stop-color:#B1DD00"/>
	<stop  offset="0.6762" style="stop-color:#D16F2E"/>
	<stop  offset="0.737" style="stop-color:#E91F4F"/>
	<stop  offset="0.7647" style="stop-color:#F2005C"/>
	<stop  offset="0.7961" style="stop-color:#F1015F"/>
	<stop  offset="0.8188" style="stop-color:#EE0368"/>
	<stop  offset="0.8387" style="stop-color:#EA0778"/>
	<stop  offset="0.857" style="stop-color:#E30D8E"/>
	<stop  offset="0.8742" style="stop-color:#DA14AB"/>
	<stop  offset="0.8906" style="stop-color:#D01ECF"/>
	<stop  offset="0.9061" style="stop-color:#C328F8"/>
	<stop  offset="0.9086" style="stop-color:#C12AFF"/>
	<stop  offset="1" style="stop-color:#EE9DFF"/>
</linearGradient>
<path fill="url(#SVGID_1_)" d="M607.508,746.386c0,0-34.903-73.313-61.52-111.323c0,0-32.672-71.4-41.756-84.31l-45.581-115.626
	c0,0,85.026,50.123,97.936,63.75c0,0,12.909-13.627-29.644-55.463c0,0-33.229-38.729-41.677-45.581c0,0-0.876-3.586-6.136-9.005
	c0,0,79.688,26.456,98.732,42.394c0,0-4.542-11.396-18.248-22.79c0,0,34.903,19.762,40.959,25.818c0,0-1.594-27.492-45.581-60.005
	c0,0-34.903-28.129-47.095-34.903c0,0-7.57-32.832-60.723-76.898c0,0-28.129-34.106-32.672-37.214c0,0-25.818-41.756-65.264-65.264
	l-48.211-28.927c-4.462-5.977-38.011-18.009-38.011-18.009h7.729c-8.446-12.272-52.673-8.447-53.709-9.961
	c-0.956-1.514,5.977-1.753,5.977-1.753c-1.992-2.948-16.894-5.977-16.894-5.977l10.438-0.956c-2.47-2.47-16.894-5.499-16.894-5.499
	l6.933-1.992c-1.514-3.506-13.945-2.47-15.938-3.984s6.933-2.948,6.933-2.948c-2.47-1.992-13.945-1.992-13.945-1.992l7.491-3.506
	c-1.992-1.992-14.424-0.956-14.424-0.956l5.499-4.463c-4.463-1.514-14.902,2.471-14.902,2.471c0-3.506,9.961-8.925,9.961-8.925
	c-3.984-1.992-19.363,1.514-19.363,1.514l5.498-5.499l-9.482,1.514l2.47-4.462l-12.431,1.992l4.94-2.949
	c-3.984-3.506-23.189-1.195-23.189-1.195l3.825-2.231c-8.526-7.491-34.346,0.398-34.346,0.398c0.957-1.992,5.977-3.347,5.977-3.347
	c-9.961-7.969-25.102,3.984-25.102,3.984c-0.956-2.47,4.941-5.977,4.941-5.977c-9.802-2.47-19.364,10.997-19.364,10.997
	c-2.471-1.514,3.984-7.491,3.984-7.491c-12.432,1.992-25.58,15.38-25.58,15.38c-7.172,9.722-12.352,14.423-12.352,14.423
	c-9.961,10.917-2.47,15.38-2.47,15.38s-41.757,27.094-18.887,77.456c0,0,9.961,18.487,14.902,20.479c0,0-6.934-26.376,3.984-36.258
	c0,0,17.531-9.403,26.376-16.894c0,0-6.136,11.953-5.657,27.891c0,0,0,7.013-15.221,8.447c0,0,5.1,20.719,55.383,6.056
	c0,0,3.188,8.447,1.195,12.989l4.94-4.303c0,0-0.876,12.591,5.101,15.539l0.956-6.455c0,0,3.984,11.953,10.917,12.909l0.398-3.984
	c0,0,7.65,8.925,13.388,8.925v-5.259l10.12,15.698l0.956-9.961l2.948,9.483l1.515-7.491c0,0,12.431,23.349,19.364,28.847
	l-2.471-11.395c0,0,20.4,43.749,36.815,58.65l13.706,16.097c0,0,4.064,23.269-3.904,24.783c0,0-32.752-0.08-35.222,16.336
	c0,0-15.858,22.313-12.432,31.795c0,0,2.471,29.804,11.476,30.281c0,0,11.395,10.439,25.102,3.984
	c6.454,4.144,14.742,7.252,25.181,7.411c0,0,43.51-5.498,70.922-1.514c0,0,14.662,1.992,39.524,17.371
	c0,0,18.408,1.515,22.871-26.854c0,0,3.506-18.886-4.941-29.325c0,0-16.973-13.308-46.855-22.393
	c0.318-3.745-1.115-8.287-6.773-12.909c0,0-7.49-3.506-14.424-0.478c0,0,4.463-5.499,4.463-7.491c0,0,34.823,22.87,40.8,20.878
	c0,0,41.677,27.333,41.677,24.464s43.748,120.646,57.933,126.464v-10.359c0,0,40.561,93.633,60.323,101.203
	c0,0,12.909,41.757,24.305,44.067c0,0,27.333,84.549,68.292,90.365c0,0-6.056-16.734-8.367-21.276c0,0,17.452,27.015,26.536,27.015
	c0,0-0.239-6.773-10.837-20.4C581.449,725.986,599.938,747.183,607.508,746.386z M175.363,414.248c0,0,1.912-4.542-1.912-13.308
	c2.47,4.383,7.251,11.396,15.061,17.133C183.092,417.755,175.363,416.799,175.363,414.248z M234.013,343.646
	c0,0,5.816-6.455,5.816-8.925s8.129,2.949,11.874,0.478v-3.347c0,0,8.446,5.499,9.164,12.75l-4.622,2.789
	c-1.753-0.797-3.825-1.195-6.295-0.797C249.95,346.673,232.021,346.673,234.013,343.646z M294.256,363.567
	c-2.311-0.638-4.781-1.275-7.251-1.913c1.514-1.594,2.709-3.347,2.709-4.542C289.714,357.112,292.742,359.583,294.256,363.567z"/>
</svg>
